<svg width="1207" height="191" viewBox="0 0 1207 191" fill="none" xmlns="http://www.w3.org/2000/svg">
<path d="M682.68 149.44C675.64 149.44 669.52 148.28 664.32 145.96C659.12 143.64 654.92 140.48 651.72 136.48L662.16 124.96C665.2 128.32 668.52 130.8 672.12 132.4C675.8 134 679.52 134.8 683.28 134.8C687.6 134.8 690.88 133.84 693.12 131.92C695.36 130 696.48 127.24 696.48 123.64C696.48 120.68 695.6 118.44 693.84 116.92C692.16 115.4 689.28 114.32 685.2 113.68L676.44 112.24C668.92 110.96 663.48 108.2 660.12 103.96C656.76 99.64 655.08 94.4 655.08 88.24C655.08 80.16 657.72 73.92 663 69.52C668.28 65.04 675.68 62.8 685.2 62.8C691.68 62.8 697.32 63.8 702.12 65.8C706.92 67.8 710.8 70.52 713.76 73.96L703.56 85.36C701.32 82.88 698.68 80.96 695.64 79.6C692.6 78.16 689.16 77.44 685.32 77.44C677.24 77.44 673.2 80.76 673.2 87.4C673.2 90.28 674.08 92.44 675.84 93.88C677.68 95.32 680.64 96.4 684.72 97.12L693.48 98.68C700.28 99.88 705.52 102.44 709.2 106.36C712.88 110.28 714.72 115.56 714.72 122.2C714.72 126.12 714.04 129.76 712.68 133.12C711.32 136.4 709.28 139.28 706.56 141.76C703.84 144.16 700.48 146.04 696.48 147.4C692.56 148.76 687.96 149.44 682.68 149.44ZM760.753 148C754.353 148 749.593 146.32 746.473 142.96C743.353 139.6 741.793 135.32 741.793 130.12V99.88H724.993V86.08H735.913C738.553 86.08 740.433 85.56 741.553 84.52C742.673 83.48 743.233 81.56 743.233 78.76V64.24H759.553V86.08H783.673V99.88H759.553V134.2H783.673V148H760.753ZM850.346 148C846.666 148 843.706 147.08 841.466 145.24C839.226 143.32 837.906 140.6 837.506 137.08H836.906C835.786 141.16 833.546 144.24 830.186 146.32C826.906 148.4 822.866 149.44 818.066 149.44C812.066 149.44 807.226 147.84 803.546 144.64C799.946 141.36 798.146 136.8 798.146 130.96C798.146 124.48 800.506 119.68 805.226 116.56C809.946 113.44 816.866 111.88 825.986 111.88H835.946V108.76C835.946 105.08 835.066 102.32 833.306 100.48C831.626 98.56 828.746 97.6 824.666 97.6C820.906 97.6 817.866 98.32 815.546 99.76C813.226 101.2 811.226 103.08 809.546 105.4L799.826 96.76C801.906 93.24 805.146 90.36 809.546 88.12C814.026 85.8 819.746 84.64 826.706 84.64C835.186 84.64 841.786 86.6 846.506 90.52C851.306 94.36 853.706 100.2 853.706 108.04V135.16H860.546V148H850.346ZM824.786 137.8C827.906 137.8 830.546 137.04 832.706 135.52C834.866 134 835.946 131.8 835.946 128.92V121.48H826.466C819.186 121.48 815.546 123.92 815.546 128.8V131.2C815.546 133.36 816.386 135 818.066 136.12C819.746 137.24 821.986 137.8 824.786 137.8ZM872.739 134.2H887.019V99.88H872.739V86.08H904.779V103.6H905.619C906.179 101.36 906.939 99.2 907.899 97.12C908.939 94.96 910.219 93.08 911.739 91.48C913.339 89.8 915.259 88.48 917.499 87.52C919.739 86.56 922.379 86.08 925.419 86.08H931.299V102.4H918.099C913.699 102.4 910.379 103.72 908.139 106.36C905.899 108.92 904.779 112.08 904.779 115.84V134.2H925.179V148H872.739V134.2ZM976.613 148C970.213 148 965.453 146.32 962.333 142.96C959.213 139.6 957.653 135.32 957.653 130.12V99.88H940.853V86.08H951.773C954.413 86.08 956.293 85.56 957.413 84.52C958.533 83.48 959.093 81.56 959.093 78.76V64.24H975.413V86.08H999.533V99.88H975.413V134.2H999.533V148H976.613ZM1045.45 149.44C1035.05 149.44 1027.17 146.56 1021.81 140.8C1016.45 135.04 1013.77 127.2 1013.77 117.28C1013.77 112.24 1014.45 107.72 1015.81 103.72C1017.25 99.64 1019.25 96.2 1021.81 93.4C1024.45 90.52 1027.61 88.36 1031.29 86.92C1035.05 85.4 1039.25 84.64 1043.89 84.64C1048.53 84.64 1052.69 85.4 1056.37 86.92C1060.05 88.36 1063.17 90.44 1065.73 93.16C1068.29 95.88 1070.25 99.2 1071.61 103.12C1073.05 106.96 1073.77 111.28 1073.77 116.08V121.36H1031.41V122.44C1031.41 126.44 1032.65 129.68 1035.13 132.16C1037.61 134.56 1041.25 135.76 1046.05 135.76C1049.73 135.76 1052.89 135.08 1055.53 133.72C1058.17 132.28 1060.45 130.4 1062.37 128.08L1071.97 138.52C1069.57 141.48 1066.21 144.04 1061.89 146.2C1057.57 148.36 1052.09 149.44 1045.45 149.44ZM1044.01 97.36C1040.17 97.36 1037.09 98.56 1034.77 100.96C1032.53 103.28 1031.41 106.44 1031.41 110.44V111.4H1056.37V110.44C1056.37 106.36 1055.25 103.16 1053.01 100.84C1050.85 98.52 1047.85 97.36 1044.01 97.36ZM1088.6 134.2H1102.88V99.88H1088.6V86.08H1120.64V103.6H1121.48C1122.04 101.36 1122.8 99.2 1123.76 97.12C1124.8 94.96 1126.08 93.08 1127.6 91.48C1129.2 89.8 1131.12 88.48 1133.36 87.52C1135.6 86.56 1138.24 86.08 1141.28 86.08H1147.16V102.4H1133.96C1129.56 102.4 1126.24 103.72 1124 106.36C1121.76 108.92 1120.64 112.08 1120.64 115.84V134.2H1141.04V148H1088.6V134.2Z" fill="#F5C25D"/>
<path d="M230 149.44C218.8 149.44 210.52 145.64 205.16 138.04C199.88 130.44 197.24 119.8 197.24 106.12C197.24 92.44 199.88 81.8 205.16 74.2C210.52 66.6 218.8 62.8 230 62.8C241.2 62.8 249.44 66.6 254.72 74.2C260.08 81.8 262.76 92.44 262.76 106.12C262.76 119.8 260.08 130.44 254.72 138.04C249.44 145.64 241.2 149.44 230 149.44ZM230 134.92C235.12 134.92 238.64 133.04 240.56 129.28C242.56 125.44 243.56 120.12 243.56 113.32V98.8C243.56 92.08 242.56 86.84 240.56 83.08C238.64 79.24 235.12 77.32 230 77.32C224.88 77.32 221.32 79.24 219.32 83.08C217.4 86.84 216.44 92.08 216.44 98.8V113.44C216.44 120.16 217.4 125.44 219.32 129.28C221.32 133.04 224.88 134.92 230 134.92ZM273.033 59.2H290.793V97.36H291.633C293.153 93.68 295.353 90.64 298.233 88.24C301.113 85.84 305.033 84.64 309.993 84.64C313.433 84.64 316.553 85.28 319.353 86.56C322.233 87.84 324.673 89.8 326.673 92.44C328.753 95.08 330.353 98.44 331.473 102.52C332.673 106.6 333.273 111.44 333.273 117.04C333.273 122.64 332.673 127.48 331.473 131.56C330.353 135.64 328.753 139 326.673 141.64C324.673 144.28 322.233 146.24 319.353 147.52C316.553 148.8 313.433 149.44 309.993 149.44C305.033 149.44 301.113 148.28 298.233 145.96C295.353 143.56 293.153 140.48 291.633 136.72H290.793V148H273.033V59.2ZM302.313 135.64C306.313 135.64 309.393 134.44 311.553 132.04C313.713 129.56 314.793 126.16 314.793 121.84V112.24C314.793 107.92 313.713 104.56 311.553 102.16C309.393 99.68 306.313 98.44 302.313 98.44C299.193 98.44 296.473 99.2 294.153 100.72C291.913 102.24 290.793 104.64 290.793 107.92V126.16C290.793 129.44 291.913 131.84 294.153 133.36C296.473 134.88 299.193 135.64 302.313 135.64ZM389.506 86.08H407.626L378.466 157.96C376.626 162.52 374.186 166 371.146 168.4C368.106 170.8 363.946 172 358.666 172H346.426V158.2H361.306L365.146 147.64L340.186 86.08H359.266L368.266 112.12L373.906 130.12H374.866L380.266 112.12L389.506 86.08ZM450.659 148C444.259 148 439.499 146.32 436.379 142.96C433.259 139.6 431.699 135.32 431.699 130.12V99.88H414.899V86.08H425.819C428.459 86.08 430.339 85.56 431.459 84.52C432.579 83.48 433.139 81.56 433.139 78.76V64.24H449.459V86.08H473.579V99.88H449.459V134.2H473.579V148H450.659ZM519.493 149.44C509.093 149.44 501.213 146.56 495.853 140.8C490.493 135.04 487.813 127.2 487.813 117.28C487.813 112.24 488.493 107.72 489.853 103.72C491.293 99.64 493.293 96.2 495.853 93.4C498.493 90.52 501.653 88.36 505.333 86.92C509.093 85.4 513.293 84.64 517.933 84.64C522.573 84.64 526.733 85.4 530.413 86.92C534.093 88.36 537.213 90.44 539.773 93.16C542.333 95.88 544.293 99.2 545.653 103.12C547.093 106.96 547.813 111.28 547.813 116.08V121.36H505.453V122.44C505.453 126.44 506.693 129.68 509.173 132.16C511.653 134.56 515.293 135.76 520.093 135.76C523.773 135.76 526.933 135.08 529.573 133.72C532.213 132.28 534.493 130.4 536.413 128.08L546.013 138.52C543.613 141.48 540.253 144.04 535.933 146.2C531.613 148.36 526.133 149.44 519.493 149.44ZM518.053 97.36C514.213 97.36 511.133 98.56 508.813 100.96C506.573 103.28 505.453 106.44 505.453 110.44V111.4H530.413V110.44C530.413 106.36 529.293 103.16 527.053 100.84C524.893 98.52 521.893 97.36 518.053 97.36ZM589.046 149.44C582.166 149.44 576.166 148.4 571.046 146.32C566.006 144.24 562.206 141.4 559.646 137.8L569.606 128.56C572.006 131.2 574.806 133.28 578.006 134.8C581.286 136.24 585.006 136.96 589.166 136.96C592.686 136.96 595.446 136.44 597.446 135.4C599.446 134.28 600.446 132.6 600.446 130.36C600.446 128.6 599.766 127.4 598.406 126.76C597.046 126.04 595.166 125.48 592.766 125.08L582.806 123.52C580.006 123.12 577.406 122.52 575.006 121.72C572.606 120.84 570.526 119.68 568.766 118.24C567.006 116.8 565.606 115.04 564.566 112.96C563.526 110.88 563.006 108.36 563.006 105.4C563.006 98.92 565.486 93.84 570.446 90.16C575.406 86.48 582.366 84.64 591.326 84.64C597.406 84.64 602.566 85.48 606.806 87.16C611.126 88.76 614.566 91.08 617.126 94.12L608.246 104.2C606.406 102.2 604.046 100.52 601.166 99.16C598.286 97.8 594.806 97.12 590.726 97.12C583.846 97.12 580.406 99.2 580.406 103.36C580.406 105.2 581.086 106.48 582.446 107.2C583.806 107.84 585.686 108.36 588.086 108.76L597.926 110.32C600.726 110.72 603.326 111.36 605.726 112.24C608.126 113.04 610.206 114.16 611.966 115.6C613.806 117.04 615.246 118.8 616.286 120.88C617.326 122.96 617.846 125.48 617.846 128.44C617.846 134.92 615.326 140.04 610.286 143.8C605.326 147.56 598.246 149.44 589.046 149.44Z" fill="#F5C25D"/>
<path d="M162.85 88.5331C161.461 86.8048 159.862 85.2866 158.122 83.9121C151.183 78.4435 143.242 74.9648 134.899 72.3411C133.296 71.8363 133.16 71.1508 133.477 69.7432C134.807 63.8692 135.459 57.9069 135.592 51.6386C135.426 46.1553 134.951 40.4804 132.287 35.2587C129.501 29.8122 125.138 26.8937 118.888 26.9305C115.129 26.9526 111.614 27.9513 108.216 29.3847C100.374 32.6939 93.6822 37.7424 87.4435 43.4321C86.4817 44.3091 85.8958 44.3828 84.9045 43.4321C81.3964 40.0787 77.5639 37.1086 73.4846 34.4811C67.9866 30.9435 62.2306 28.036 55.627 27.1332C49.4251 26.2856 43.9823 28.7436 40.7432 34.0832C38.0605 38.5089 37.2019 43.4468 36.9108 48.499C36.4907 55.7732 37.3825 62.948 38.9375 70.038C39.2176 71.313 38.9965 71.8915 37.7068 72.2748C33.948 73.3913 30.2925 74.8174 26.7438 76.4904C20.3245 79.5122 14.2368 83.0314 9.60846 88.5958C4.18043 95.1219 4.12884 102.238 9.40579 108.867C11.5284 111.535 14.0894 113.717 16.8716 115.64C23.3315 120.11 30.4804 123.128 37.9315 125.472C39.1107 125.844 39.4092 126.275 39.1218 127.521C37.9536 132.543 37.2682 137.647 37.0324 142.799C36.7523 148.905 37.154 154.941 39.4313 160.704C42.1877 167.687 47.192 170.938 54.6726 170.698C57.5911 170.606 60.3586 169.84 63.0597 168.797C71.4947 165.539 78.5663 160.2 85.1772 154.182C86.0874 153.353 86.6438 153.257 87.5725 154.119C89.3671 155.785 91.228 157.392 93.1626 158.891C99.6004 163.873 106.373 168.244 114.466 170.083C123.332 172.095 130.013 168.815 133.289 160.789C134.663 157.417 135.327 153.872 135.603 150.243C136.193 142.526 135.22 134.942 133.598 127.432C133.304 126.069 133.772 125.763 134.848 125.405C137.346 124.576 139.844 123.729 142.277 122.726C149.58 119.719 156.475 116.049 161.977 110.194C168.37 103.391 168.683 95.7816 162.857 88.5184L162.85 88.5331ZM92.1198 49.0038C98.2774 43.5205 104.726 38.4831 112.538 35.5277C114.307 34.857 116.15 34.3853 118.073 34.3079C122.366 34.1384 124.67 35.5682 126.28 39.6254C127.887 43.6753 128.266 47.9352 128.226 52.2503C128.204 57.7226 127.382 63.1027 126.343 68.4571C126.144 69.4742 125.794 69.6879 124.747 69.441C118.729 68.0259 112.649 66.9352 106.491 66.3345C105.519 66.2387 104.84 65.7854 104.247 64.9784C100.547 59.9373 96.5676 55.121 92.2819 50.5663C91.7992 50.0541 91.3164 49.7187 92.1235 49.0001L92.1198 49.0038ZM48.5333 120.055C49.7162 116.027 51.0907 112.073 52.7601 107.861C55.557 113.289 58.5198 118.22 61.7073 123.346C57.2742 122.774 53.2207 121.971 49.193 121.002C48.6476 120.869 48.3233 120.773 48.5333 120.051V120.055ZM48.4302 77.6697C48.2164 77.01 48.4891 76.8221 49.075 76.6858C53.1138 75.7534 57.171 74.928 61.7073 74.3347C58.4829 79.5085 55.6012 84.4354 52.7822 89.9113C50.9618 85.6735 49.7089 81.6679 48.4265 77.6733L48.4302 77.6697ZM57.2226 100.277C56.7952 99.3892 56.6883 98.6301 57.1526 97.6867C61.0698 89.7049 65.4292 81.9811 70.3892 74.5927C71.1188 73.5056 71.948 73.1113 73.2377 73.0265C81.9417 72.459 90.6347 72.4738 99.3387 73.0192C100.573 73.0965 101.314 73.4982 102.007 74.519C106.9 81.7306 111.249 89.248 115.092 97.0676C115.689 98.2763 115.733 99.2381 115.122 100.487C111.267 108.366 106.941 115.968 102.051 123.25C101.413 124.2 100.71 124.58 99.5377 124.691C95.1341 125.1 90.7158 124.956 85.8073 125.295C81.6543 125.089 77.0038 124.834 72.3496 124.646C71.5352 124.613 71.1667 124.182 70.7724 123.611C65.6576 116.178 61.1435 108.403 57.2226 100.277ZM110.792 74.3937C115.299 74.8801 119.393 75.7866 123.487 76.7152C123.922 76.8147 124.124 76.9916 123.984 77.4633C122.775 81.5463 121.453 85.5851 119.684 89.8044C116.935 84.4059 113.979 79.5159 110.795 74.3937H110.792ZM119.603 107.916C120.616 109.442 121.014 111.045 121.559 112.571C122.403 114.933 123.133 117.335 123.947 119.708C124.191 120.416 124.202 120.792 123.31 120.998C119.264 121.945 115.203 122.767 110.77 123.357C113.972 118.205 116.898 113.223 119.599 107.916H119.603ZM88.9507 57.9032C90.7526 59.9041 92.4625 61.9899 94.2092 64.0424C94.4782 64.3593 94.7103 64.7131 95.1968 65.3727C89.087 65.1958 83.3457 65.2032 77.2544 65.3543C79.1411 62.5537 81.2637 60.3095 83.2794 57.9842C86.0727 54.7672 86.1242 54.7635 88.9507 57.9032ZM46.0386 39.8576C47.8074 35.3324 50.8291 33.6483 55.616 34.5475C62.1827 35.782 67.6881 39.209 72.9503 43.0709C75.3161 44.8103 77.4939 46.8076 79.786 48.6464C80.652 49.3429 80.9173 49.8145 79.9813 50.7911C75.7399 55.2242 71.8374 59.952 68.2593 64.9379C67.6254 65.8186 66.8884 66.2424 65.8456 66.3456C59.7395 66.9462 53.7071 68.0186 47.7484 69.4557C46.5766 69.7395 46.2634 69.3894 46.0607 68.365C45.0105 63.0659 44.1445 57.7484 44.1887 52.8289C44.1519 48.0715 44.4688 43.8706 46.0386 39.8539V39.8576ZM41.5318 117.774C41.3512 118.386 41.1744 118.905 40.2789 118.603C31.877 115.78 23.7221 112.471 17.0596 106.38C14.8744 104.382 12.9729 102.12 12.7997 98.8917C12.9102 95.6194 14.8891 93.3531 17.0964 91.2821C22.1486 86.5543 28.262 83.6099 34.6187 81.1188C36.3838 80.4261 38.2042 79.888 39.973 79.21C40.7616 78.9078 41.1154 78.9373 41.3955 79.8733C43.249 86.0936 45.53 92.1629 48.1464 98.1031C48.3786 98.6301 48.4117 99.1497 48.1685 99.6987C45.5853 105.587 43.3264 111.594 41.5244 117.77L41.5318 117.774ZM80.2135 148.864C74.4501 153.953 68.4325 158.655 61.2725 161.662C59.0688 162.587 56.7952 163.284 54.3667 163.391C50.1879 163.575 48.0432 162.226 46.3592 158.346C45.7475 156.935 45.2905 155.472 45.0105 153.972C44.5019 151.26 44.2182 148.518 44.244 145.751C44.3066 140.157 45.0731 134.648 46.186 129.179C46.3481 128.383 46.5508 127.967 47.6195 128.221C53.6961 129.658 59.8353 130.764 66.0556 131.368C67.0432 131.464 67.6955 131.939 68.2814 132.742C71.9295 137.747 75.8836 142.504 80.1287 147.014C80.7515 147.674 81.0979 148.079 80.2061 148.864H80.2135ZM87.2629 141.841C86.5922 142.57 86.1611 142.729 85.4094 141.903C82.6824 138.911 79.9887 135.893 77.2433 132.326C83.3494 132.455 89.0944 132.514 94.7804 132.326C95.1083 132.713 94.8541 132.96 94.6809 133.181C92.3335 136.173 89.8387 139.036 87.2629 141.837V141.841ZM126.527 157.716C124.732 162.396 121.777 164.006 116.857 163.107C110.729 161.99 105.563 158.851 100.584 155.35C97.78 153.375 95.1452 151.179 92.573 148.901C91.6849 148.113 91.7844 147.659 92.5288 146.882C96.8219 142.412 100.728 137.618 104.354 132.599C104.958 131.762 105.677 131.416 106.639 131.32C112.8 130.712 118.88 129.603 124.902 128.191C125.808 127.978 126.191 128.014 126.398 129.039C127.485 134.452 128.377 139.884 128.307 145.43C128.358 149.616 128.052 153.762 126.534 157.716H126.527ZM156.574 105.23C153.822 108.259 150.428 110.47 146.876 112.431C142.361 114.922 137.586 116.801 132.699 118.437C131.52 118.831 131.24 118.481 130.945 117.472C129.21 111.531 127.032 105.753 124.526 100.1C124.124 99.1939 124.091 98.4164 124.504 97.484C127.002 91.8238 129.165 86.0347 130.879 80.087C131.1 79.3169 131.299 78.7936 132.375 79.1547C140.497 81.8632 148.316 85.1318 154.909 90.7883C157.938 93.3863 159.637 96.2754 159.666 98.7738C159.703 101.434 158.229 103.406 156.571 105.234L156.574 105.23Z" fill="url(#paint0_linear_107_185)"/>
<path d="M99.4883 93.3144C98.0638 90.7329 95.9423 88.5958 93.3622 87.1431C92.1941 86.492 90.9089 86.0742 89.5794 85.9134C89.0361 83.1695 86.3406 79.8782 85.3156 78.3897L81.5397 79.4524C82.4574 80.67 85.0643 83.7265 85.6068 86.1155L85.3155 86.1875C82.3859 86.9664 79.8691 88.8281 78.2813 91.3907C77.3796 92.8071 76.9136 94.4538 76.9401 96.1296C76.9563 96.8223 77.0633 97.51 77.2583 98.1755C77.8058 100.018 78.9923 101.481 80.5426 102.209C83.0408 103.368 85.0555 102.927 86.3033 102.346C86.9723 102.031 87.5856 101.61 88.1195 101.101C89.366 99.8871 90.2456 98.3521 90.6592 96.6684C91.2096 94.4793 91.2685 92.1964 90.8317 89.9811C91.0769 90.0814 91.3157 90.1967 91.5465 90.3263C93.5279 91.4429 95.1566 93.0854 96.2494 95.069C97.3732 97.1084 97.8805 99.4254 97.7104 101.742C97.6304 102.874 97.3905 103.989 96.9976 105.054C96.2814 106.99 95.0752 108.711 93.4949 110.05C92.2764 111.094 90.8602 111.886 89.329 112.381C87.7978 112.875 86.1823 113.062 84.5767 112.93C81.3671 112.665 78.3906 111.156 76.2921 108.73C74.1936 106.305 73.1421 103.158 73.3654 99.9709C73.481 98.2872 73.9446 96.6455 74.7275 95.1479L71.3467 93.6439C70.3907 95.5339 69.8227 97.5939 69.6758 99.7043C69.3847 103.856 70.755 107.957 73.4898 111.117C76.2245 114.277 80.1034 116.242 84.2855 116.586L84.4033 116.594C86.4767 116.75 88.5601 116.497 90.534 115.852C92.5079 115.206 94.3333 114.18 95.9055 112.832C97.9016 111.141 99.4401 108.982 100.381 106.551C100.946 105.092 101.289 103.558 101.401 101.999C101.617 98.983 100.953 95.968 99.4883 93.3144ZM82.1104 98.9077C81.7261 98.7113 81.4057 98.4108 81.1866 98.0411C81.0154 97.766 80.8825 97.4692 80.7916 97.1589C80.6179 96.5175 80.5828 95.8472 80.6884 95.1918C80.7939 94.5364 81.0379 93.9106 81.4043 93.3555C82.0012 92.3759 82.803 91.535 83.7558 90.8895C84.7086 90.2439 85.7901 89.8088 86.9274 89.6134C87.4934 91.7799 87.5451 93.8628 87.052 95.7718C86.6605 97.2992 85.7636 98.5528 84.7148 99.0396C84.4711 99.1559 84.21 99.232 83.9415 99.265C83.3087 99.3192 82.6733 99.1918 82.1111 98.8979L82.1104 98.9077Z" fill="url(#paint1_linear_107_185)" stroke="url(#paint2_linear_107_185)" stroke-width="2.5"/>
<defs>
<linearGradient id="paint0_linear_107_185" x1="32.6362" y1="89.6487" x2="164.088" y2="110.097" gradientUnits="userSpaceOnUse">
<stop stop-color="#FEFDBD"/>
<stop offset="1" stop-color="#F4C15B"/>
</linearGradient>
<linearGradient id="paint1_linear_107_185" x1="87.3855" y1="75.2855" x2="84.4008" y2="116.594" gradientUnits="userSpaceOnUse">
<stop stop-color="#FBE99C"/>
<stop offset="1" stop-color="#F69037"/>
</linearGradient>
<linearGradient id="paint2_linear_107_185" x1="87.3855" y1="75.2855" x2="84.4008" y2="116.594" gradientUnits="userSpaceOnUse">
<stop stop-color="#FBE699"/>
<stop offset="1" stop-color="#F69037"/>
<stop offset="1" stop-color="#F66537"/>
</linearGradient>
</defs>
</svg>
