<?xml version="1.0" encoding="UTF-8"?>
<svg version="1.1" xmlns="http://www.w3.org/2000/svg" width="1562" height="259">
<path d="M0 0 C0.79096069 -0.00619858 1.58192139 -0.01239716 2.39685059 -0.01878357 C4.05736063 -0.02583924 5.71794206 -0.02278266 7.37841797 -0.01000977 C9.90075223 0.00387598 12.41938307 -0.03029573 14.94140625 -0.06835938 C30.53461666 -0.14373044 30.53461666 -0.14373044 36.40625 5.56640625 C37.39044922 6.44425781 37.39044922 6.44425781 38.39453125 7.33984375 C43.25216169 13.21485402 45.57127913 18.04318581 45.4765625 25.8046875 C45.46641113 26.88403564 45.45625977 27.96338379 45.44580078 29.07543945 C45.43274902 29.8974585 45.41969727 30.71947754 45.40625 31.56640625 C46.04732413 31.56364087 46.68839827 31.56087549 47.34889889 31.55802631 C62.97425378 31.49166668 78.59955939 31.44207725 94.22502041 31.41096973 C101.78149424 31.3955251 109.3378738 31.3744818 116.89428711 31.34008789 C123.48329247 31.31011165 130.07222953 31.29081379 136.6613012 31.28414077 C140.14761793 31.28024237 143.63373931 31.27113134 147.11999321 31.24921608 C151.01940343 31.22490427 154.91862551 31.22444152 158.81811523 31.22583008 C159.96395081 31.21504425 161.10978638 31.20425842 162.29034424 31.19314575 C172.33611642 31.23177191 180.93685599 33.07393463 188.2578125 40.42578125 C192.26167764 44.80861305 195.40625 48.39804576 195.40625 54.56640625 C196.30085937 54.50839844 197.19546875 54.45039062 198.1171875 54.390625 C206.56222278 54.07551174 212.27003722 54.962398 219.40625 59.56640625 C219.40625 60.22640625 219.40625 60.88640625 219.40625 61.56640625 C220.06625 61.56640625 220.72625 61.56640625 221.40625 61.56640625 C222.26881525 62.98655832 223.09453335 64.42909013 223.90625 65.87890625 C224.3703125 66.67941406 224.834375 67.47992188 225.3125 68.3046875 C228.24273516 77.04306736 225.93142992 85.89105523 223.51171875 94.484375 C223.05667465 96.16470573 223.05667465 96.16470573 222.59243774 97.87898254 C221.60625381 101.50776599 220.60052062 105.13078582 219.59375 108.75390625 C218.90667839 111.26206385 218.22073331 113.7705303 217.53588867 116.27929688 C216.15840249 121.31760398 214.77310864 126.35366687 213.38183594 131.38818359 C211.59220282 137.87341339 209.84056529 144.36823183 208.1015625 150.8671875 C207.37027045 153.58489727 206.63777616 156.30227829 205.90444946 159.0194397 C205.4518897 160.70043064 205.00162528 162.38204145 204.55380249 164.06430054 C199.12037749 184.42826627 199.12037749 184.42826627 192.78125 190.75390625 C192.19085938 191.36621094 191.60046875 191.97851562 190.9921875 192.609375 C181.11560739 200.08394696 171.90180662 200.29170615 159.97241211 200.22924805 C158.11363196 200.23767136 156.25486035 200.24820096 154.39610291 200.26066589 C149.37130494 200.28762554 144.34700528 200.28303724 139.32216716 200.27096534 C135.11979092 200.26381492 130.91750571 200.27234604 126.71513659 200.28087074 C116.7998345 200.30079405 106.8847737 200.29528505 96.96948242 200.27319336 C86.75364087 200.25081828 76.53843088 200.26844883 66.32264894 200.30624264 C57.53591863 200.33750311 48.74938356 200.34538491 39.96260458 200.3342889 C34.72139849 200.32781163 29.48055692 200.32975788 24.23939323 200.3536129 C19.3118001 200.37490107 14.38509696 200.36684006 9.45755959 200.33651924 C7.65366104 200.330205 5.84969301 200.33402082 4.04584503 200.34893036 C-13.52695754 200.48236197 -13.52695754 200.48236197 -20.59375 193.56640625 C-25.6800668 188.34967107 -26.84068 182.94688352 -26.86117554 175.79998779 C-26.86570665 175.14446497 -26.87023776 174.48894215 -26.87490618 173.813555 C-26.88750397 171.63051322 -26.88593284 169.4477224 -26.88427734 167.26464844 C-26.89026557 165.69379864 -26.89707179 164.12295178 -26.90463257 162.55210876 C-26.92227174 158.29364817 -26.92698712 154.035268 -26.92826414 149.77677441 C-26.9296877 147.11291612 -26.93396121 144.44907815 -26.93925858 141.78522491 C-26.9577533 132.48229173 -26.96593005 123.1794158 -26.96435547 113.87646484 C-26.96315483 105.22068302 -26.98424326 96.56515085 -27.0158428 87.90943217 C-27.04204485 80.4654679 -27.05272109 73.02158497 -27.05144465 65.57757497 C-27.05093609 61.13724691 -27.05656023 56.69714073 -27.07780075 52.25685883 C-27.09724904 48.07721887 -27.09726295 43.89801089 -27.08276749 39.71835518 C-27.0806863 38.1906146 -27.08533891 36.66284651 -27.0974884 35.13515282 C-27.18093597 23.90870733 -25.91014078 14.96376628 -18.546875 6.13671875 C-12.8195423 1.53194326 -7.24618589 -0.04837535 0 0 Z " fill="#FED8A0" transform="translate(26.59375,28.43359375)"/>
<path d="M0 0 C8.34599303 7.19956542 12.53344245 16.67689809 14.8125 27.3125 C15.55361232 37.68807246 14.4577511 47.56891771 12.875 57.8125 C12.7630127 58.55084076 12.65102539 59.28918152 12.53564453 60.04989624 C11.73791875 65.30845082 10.91020478 70.56178244 10.0625 75.8125 C9.95403748 76.4855719 9.84557495 77.1586438 9.73382568 77.85211182 C5.96142591 101.11512318 1.61885296 122.48157436 -18.2421875 137.5625 C-31.3626734 146.16609731 -46.8281154 147.64863476 -62.0546875 145.33984375 C-71.20463913 142.95971615 -77.82197664 137.95736699 -82.74609375 129.9609375 C-83.8688083 127.93637027 -84.90889604 125.88598759 -85.9375 123.8125 C-86.07784416 124.73639526 -86.07784416 124.73639526 -86.22102356 125.67895508 C-87.20759583 132.16994131 -88.19807028 138.66032403 -89.19067383 145.15039062 C-89.5591601 147.5630026 -89.92669669 149.97575983 -90.29321289 152.38867188 C-92.29714047 165.57686647 -94.36951119 178.72142768 -96.9375 191.8125 C-106.1775 191.8125 -115.4175 191.8125 -124.9375 191.8125 C-118.32438107 149.3332321 -111.63054222 106.86747673 -104.86420941 64.41235733 C-103.66615554 56.89495499 -102.46923089 49.37737296 -101.27235389 41.85978317 C-98.82856836 26.51050292 -96.38336739 11.16144867 -93.9375 -4.1875 C-84.6975 -4.1875 -75.4575 -4.1875 -65.9375 -4.1875 C-66.5975 1.7525 -67.2575 7.6925 -67.9375 13.8125 C-67.091875 12.61625 -66.24625 11.42 -65.375 10.1875 C-58.41778159 1.01367944 -49.07331623 -4.79056618 -37.6328125 -6.90234375 C-24.40025986 -8.30230946 -11.23141708 -8.03578926 0 0 Z M-69.9375 15.8125 C-68.9375 17.8125 -68.9375 17.8125 -68.9375 17.8125 Z M-66.125 28.9375 C-73.87128828 38.86799219 -75.4330481 51.13297595 -77.30541992 63.21044922 C-77.74748962 66.04639555 -78.2186386 68.87638889 -78.69335938 71.70703125 C-82.53714806 92.18931227 -82.53714806 92.18931227 -77.9375 111.8125 C-75.604008 114.64661155 -75.604008 114.64661155 -72.9375 116.8125 C-72.298125 117.369375 -71.65875 117.92625 -71 118.5 C-63.40531528 123.33298118 -53.3172278 122.99015186 -44.796875 121.125 C-35.80478272 118.11089085 -28.89044754 113.45404139 -24.33764648 104.99072266 C-22.77698933 101.44815336 -21.81518353 97.92023849 -20.96875 94.16015625 C-20.79966125 93.42335632 -20.63057251 92.6865564 -20.45635986 91.9274292 C-18.68517577 84.00690688 -17.32538296 76.02552691 -16.07226562 68.00878906 C-15.68522434 65.54803168 -15.28056522 63.09057672 -14.875 60.6328125 C-11.37799007 42.72884273 -11.37799007 42.72884273 -15.9375 25.8125 C-21.02198888 19.77725304 -27.31280824 17.23028897 -35.05078125 16.53125 C-48.03381454 16.165101 -57.14286151 19.56682117 -66.125 28.9375 Z " fill="#1D2021" transform="translate(784.9375,67.1875)"/>
<path d="M0 0 C0.79096069 -0.00619858 1.58192139 -0.01239716 2.39685059 -0.01878357 C4.05736063 -0.02583924 5.71794206 -0.02278266 7.37841797 -0.01000977 C9.90075223 0.00387598 12.41938307 -0.03029573 14.94140625 -0.06835938 C30.53461666 -0.14373044 30.53461666 -0.14373044 36.40625 5.56640625 C37.39044922 6.44425781 37.39044922 6.44425781 38.39453125 7.33984375 C43.25216169 13.21485402 45.57127913 18.04318581 45.4765625 25.8046875 C45.46641113 26.88403564 45.45625977 27.96338379 45.44580078 29.07543945 C45.43274902 29.8974585 45.41969727 30.71947754 45.40625 31.56640625 C46.04732413 31.56364087 46.68839827 31.56087549 47.34889889 31.55802631 C62.97425378 31.49166668 78.59955939 31.44207725 94.22502041 31.41096973 C101.78149424 31.3955251 109.3378738 31.3744818 116.89428711 31.34008789 C123.48329247 31.31011165 130.07222953 31.29081379 136.6613012 31.28414077 C140.14761793 31.28024237 143.63373931 31.27113134 147.11999321 31.24921608 C151.01940343 31.22490427 154.91862551 31.22444152 158.81811523 31.22583008 C159.96395081 31.21504425 161.10978638 31.20425842 162.29034424 31.19314575 C172.33611642 31.23177191 180.93685599 33.07393463 188.2578125 40.42578125 C192.26167764 44.80861305 195.40625 48.39804576 195.40625 54.56640625 C196.30085937 54.50839844 197.19546875 54.45039062 198.1171875 54.390625 C206.56222278 54.07551174 212.27003722 54.962398 219.40625 59.56640625 C219.40625 60.22640625 219.40625 60.88640625 219.40625 61.56640625 C220.06625 61.56640625 220.72625 61.56640625 221.40625 61.56640625 C222.26881525 62.98655832 223.09453335 64.42909013 223.90625 65.87890625 C224.3703125 66.67941406 224.834375 67.47992188 225.3125 68.3046875 C228.24273516 77.04306736 225.93142992 85.89105523 223.51171875 94.484375 C223.05667465 96.16470573 223.05667465 96.16470573 222.59243774 97.87898254 C221.60625381 101.50776599 220.60052062 105.13078582 219.59375 108.75390625 C218.90667839 111.26206385 218.22073331 113.7705303 217.53588867 116.27929688 C216.15840249 121.31760398 214.77310864 126.35366687 213.38183594 131.38818359 C211.59220282 137.87341339 209.84056529 144.36823183 208.1015625 150.8671875 C207.37027045 153.58489727 206.63777616 156.30227829 205.90444946 159.0194397 C205.4518897 160.70043064 205.00162528 162.38204145 204.55380249 164.06430054 C199.12037749 184.42826627 199.12037749 184.42826627 192.78125 190.75390625 C192.19085938 191.36621094 191.60046875 191.97851562 190.9921875 192.609375 C181.11560739 200.08394696 171.90180662 200.29170615 159.97241211 200.22924805 C158.11363196 200.23767136 156.25486035 200.24820096 154.39610291 200.26066589 C149.37130494 200.28762554 144.34700528 200.28303724 139.32216716 200.27096534 C135.11979092 200.26381492 130.91750571 200.27234604 126.71513659 200.28087074 C116.7998345 200.30079405 106.8847737 200.29528505 96.96948242 200.27319336 C86.75364087 200.25081828 76.53843088 200.26844883 66.32264894 200.30624264 C57.53591863 200.33750311 48.74938356 200.34538491 39.96260458 200.3342889 C34.72139849 200.32781163 29.48055692 200.32975788 24.23939323 200.3536129 C19.3118001 200.37490107 14.38509696 200.36684006 9.45755959 200.33651924 C7.65366104 200.330205 5.84969301 200.33402082 4.04584503 200.34893036 C-13.52695754 200.48236197 -13.52695754 200.48236197 -20.59375 193.56640625 C-25.6800668 188.34967107 -26.84068 182.94688352 -26.86117554 175.79998779 C-26.86570665 175.14446497 -26.87023776 174.48894215 -26.87490618 173.813555 C-26.88750397 171.63051322 -26.88593284 169.4477224 -26.88427734 167.26464844 C-26.89026557 165.69379864 -26.89707179 164.12295178 -26.90463257 162.55210876 C-26.92227174 158.29364817 -26.92698712 154.035268 -26.92826414 149.77677441 C-26.9296877 147.11291612 -26.93396121 144.44907815 -26.93925858 141.78522491 C-26.9577533 132.48229173 -26.96593005 123.1794158 -26.96435547 113.87646484 C-26.96315483 105.22068302 -26.98424326 96.56515085 -27.0158428 87.90943217 C-27.04204485 80.4654679 -27.05272109 73.02158497 -27.05144465 65.57757497 C-27.05093609 61.13724691 -27.05656023 56.69714073 -27.07780075 52.25685883 C-27.09724904 48.07721887 -27.09726295 43.89801089 -27.08276749 39.71835518 C-27.0806863 38.1906146 -27.08533891 36.66284651 -27.0974884 35.13515282 C-27.18093597 23.90870733 -25.91014078 14.96376628 -18.546875 6.13671875 C-12.8195423 1.53194326 -7.24618589 -0.04837535 0 0 Z M6.85237122 69.35144043 C2.47452816 76.05680691 0.51314262 84.18033208 -1.51171875 91.84765625 C-1.77049805 92.80781143 -2.02927734 93.76796661 -2.29589844 94.75721741 C-3.13021318 97.85874129 -3.95585474 100.96249801 -4.78125 104.06640625 C-5.35733864 106.21489385 -5.93392154 108.36324898 -6.51098633 110.51147461 C-8.2142325 116.86073565 -9.90588895 123.21304007 -11.59375 129.56640625 C-11.83899414 130.48915344 -12.08423828 131.41190063 -12.33691406 132.36260986 C-14.19047602 139.33894407 -16.04246324 146.31569059 -17.87768555 153.296875 C-18.2106665 154.56273437 -18.54364746 155.82859375 -18.88671875 157.1328125 C-19.1705542 158.21506104 -19.45438965 159.29730957 -19.74682617 160.41235352 C-20.36230571 162.70447809 -21.01013082 164.98799304 -21.67724609 167.265625 C-23.3593384 173.32366657 -23.84053126 180.03757002 -21.71875 186.04296875 C-18.39668794 191.87843302 -13.90329482 194.46322464 -7.59375 196.56640625 C-5.20932098 196.66751979 -2.82210628 196.70583735 -0.43554688 196.71357727 C0.29837815 196.71725396 1.03230318 196.72093065 1.78846836 196.72471875 C4.25481928 196.73575681 6.72112807 196.73959969 9.1875 196.7434082 C10.95332473 196.74967297 12.71914813 196.75631978 14.48497009 196.76332092 C20.29205405 196.78436929 26.09913828 196.79472679 31.90625 196.8046875 C33.90666721 196.80873533 35.90708429 196.81285226 37.90750122 196.81703758 C47.30958966 196.83609413 56.71167025 196.85032192 66.1137743 196.85864955 C76.9563237 196.86841197 87.7986684 196.89470354 98.64114571 196.93515044 C107.02687309 196.96535534 115.41254197 196.98012274 123.79832268 196.98343056 C128.80379185 196.98577685 133.80904246 196.99468184 138.81445312 197.01989174 C143.52916961 197.04325278 148.24352492 197.0473735 152.95828438 197.03713036 C154.68234016 197.03663677 156.4064142 197.04290466 158.13041496 197.0566864 C170.57449657 197.15054232 180.98733233 196.26189869 190.65234375 187.640625 C195.06732177 182.4193481 197.18372035 176.83137454 198.88671875 170.328125 C199.10083405 169.54233566 199.31494934 168.75654633 199.53555298 167.94694519 C200.23103953 165.38503825 200.91252746 162.81963922 201.59375 160.25390625 C202.07758397 158.46023724 202.56221334 156.66678261 203.04760742 154.87353516 C204.51429636 149.44147535 205.96195958 144.00445716 207.40625 138.56640625 C207.83620187 136.95099284 208.26621249 135.33559506 208.69628906 133.72021484 C210.24697047 127.89074026 211.7965027 122.06102402 213.32275391 116.22509766 C214.92184425 110.11673011 216.54371405 104.01969198 218.296875 97.953125 C218.58199951 96.95619629 218.86712402 95.95926758 219.16088867 94.93212891 C219.67199546 93.15862388 220.19420808 91.38824939 220.73168945 89.62255859 C222.58554598 83.16107811 223.93075243 75.76316096 221.57641602 69.28198242 C218.69928827 64.14181031 214.93917489 60.61828917 209.40625 58.56640625 C203.43531912 57.81894202 197.50026339 57.8820442 191.49072266 57.91943359 C189.66341787 57.91265241 187.83611992 57.90374648 186.00883484 57.8928833 C181.06027654 57.87013968 176.11224101 57.87890678 171.16367388 57.89477873 C165.97534339 57.90746714 160.78705667 57.89568909 155.59872437 57.8878479 C146.88474523 57.87875829 138.17097816 57.89071954 129.45703125 57.91455078 C119.39808687 57.94174359 109.33964953 57.93295844 99.28071749 57.90541875 C90.63074597 57.88268871 81.98092664 57.87954716 73.33093488 57.8926121 C68.17076082 57.90038739 63.01082461 57.90150152 57.85066605 57.88492966 C52.99622071 57.87042806 48.14242523 57.88061023 43.2880497 57.90940094 C41.511991 57.91598217 39.73587712 57.9141651 37.95984077 57.90308762 C25.34513951 57.83169453 15.21926669 58.89812516 6.85237122 69.35144043 Z " fill="#F7C078" transform="translate(26.59375,28.43359375)"/>
<path d="M0 0 C6.75768133 6.26521872 11.60587168 14.84986621 12.0859375 24.1328125 C12.35274439 38.18901575 10.51461861 49.97752896 0.75 60.8125 C-10.14954455 70.81014561 -23.27081701 72.42842005 -37.51953125 72.203125 C-38.93583873 72.19564054 -40.35215674 72.18995808 -41.76847839 72.18597412 C-45.44949254 72.17089056 -49.12984901 72.13176494 -52.81060791 72.0871582 C-56.58523671 72.04582604 -60.3599745 72.02788317 -64.13476562 72.0078125 C-71.50680634 71.96524801 -78.87831012 71.89721496 -86.25 71.8125 C-86.41201946 73.90077296 -86.57364684 75.98907634 -86.73510742 78.07739258 C-86.82515549 79.24031326 -86.91520355 80.40323395 -87.00798035 81.60139465 C-88.18331964 96.403565 -88.18331964 96.403565 -81.89453125 109.43359375 C-75.3180605 115.3753381 -67.0594333 117.11244743 -58.44921875 116.96484375 C-48.15784853 116.25194244 -38.69573893 113.08508221 -31.25 105.8125 C-30.81816406 104.77609375 -30.38632812 103.7396875 -29.94140625 102.671875 C-27.25 99.8125 -27.25 99.8125 -24.39916992 99.32763672 C-20.74958389 99.22059254 -17.14816468 99.29127346 -13.5 99.4375 C-12.23027344 99.46457031 -10.96054687 99.49164063 -9.65234375 99.51953125 C-6.51652094 99.5902641 -3.38411337 99.68893508 -0.25 99.8125 C-2.47581216 111.81400864 -9.56442705 121.69947445 -19.15625 129.03515625 C-36.62887403 140.60428231 -59.19365909 143.72221635 -79.703125 140.1640625 C-91.36229466 137.35722536 -101.34571556 131.79937619 -108.25 121.8125 C-113.56658772 113.05076344 -115.63929039 104.27518926 -115.578125 94.08203125 C-115.57476135 93.27014847 -115.57139771 92.45826569 -115.56793213 91.6217804 C-115.40583309 82.68497907 -114.03865539 73.98904448 -112.47900391 65.20385742 C-111.99769856 62.48700897 -111.54205869 59.76674847 -111.08984375 57.04492188 C-107.66912983 36.86768223 -103.25646289 19.66127676 -88.25 4.8125 C-87.64800781 4.17699219 -87.04601562 3.54148437 -86.42578125 2.88671875 C-65.21186699 -17.86702383 -22.72547027 -18.19746303 0 0 Z M-72 21.4375 C-78.77619109 29.80161523 -82.25 40.09465467 -82.25 50.8125 C-74.38471512 50.91400834 -66.5195995 50.98401159 -58.65380859 51.03222656 C-55.97836625 51.05006825 -53.30377984 51.07961049 -50.62841797 51.11425781 C-46.78081429 51.16283506 -42.93379213 51.18548365 -39.0859375 51.203125 C-37.29499161 51.23409271 -37.29499161 51.23409271 -35.46786499 51.26568604 C-29.10666922 51.26740091 -25.03927456 51.19325204 -20.25 46.8125 C-16.77646314 42.28262727 -14.99222367 36.50506052 -15.25 30.8125 C-16.40932659 24.36931954 -19.14298647 18.97817841 -24.25 14.8125 C-39.18339778 5.91197849 -60.07941255 8.90165643 -72 21.4375 Z " fill="#1D2021" transform="translate(949.25,72.1875)"/>
<path d="M0 0 C1.22887939 0.00757324 2.45775879 0.01514648 3.72387695 0.02294922 C16.23283039 0.24970762 28.53869837 1.6566868 38.1875 10.4375 C43.57432364 16.16245759 46.15262579 21.82986799 46.5 29.75 C46.18291155 39.10410932 43.2845232 45.08593843 36.9296875 51.91796875 C30.37969278 57.93612629 23.76657416 62.53988991 15.6875 66.25 C14.26908813 66.91563965 14.26908813 66.91563965 12.82202148 67.59472656 C-3.45866449 75.15384041 -19.96631541 82.23144419 -36.42303467 89.39624023 C-40.30590897 91.08828436 -44.18626417 92.78607673 -48.06640625 94.484375 C-48.7523436 94.78458557 -49.43828094 95.08479614 -50.14500427 95.394104 C-51.70087983 96.07513628 -53.25669735 96.75630118 -54.8125 97.4375 C-51.41104458 106.27748662 -45.226999 110.29813087 -36.77734375 114.21484375 C-20.56975442 120.89860588 -1.95778335 117.42166876 14 111.4375 C17.52551628 109.90836041 20.28429995 107.97780005 23.1875 105.4375 C23.8475 105.4375 24.5075 105.4375 25.1875 105.4375 C25.414375 104.86 25.64125 104.2825 25.875 103.6875 C28.28883173 99.54950275 31.03446801 97.75196327 35.625 96.5 C39.74623235 96.42769768 41.75712352 97.20376648 45.1875 99.4375 C48.04481787 103.72347681 47.77945058 107.40976389 47.1875 112.4375 C42.59387433 124.02142561 31.07481321 129.74717063 20.27929688 134.55322266 C-3.54480941 144.62452436 -29.15851481 146.41688695 -53.58984375 137.4140625 C-64.62668335 132.49717661 -72.58459883 124.14471607 -77.5 113.19140625 C-84.50580785 93.15396178 -79.87070451 69.85165527 -70.9597168 51.11865234 C-62.1970515 33.49286606 -51.06121948 16.81202407 -33.5 7.125 C-32.92040527 6.79927002 -32.34081055 6.47354004 -31.74365234 6.13793945 C-21.7159861 0.89217392 -11.15311762 -0.09632551 0 0 Z M-36 38.5625 C-42.36090977 46.2372173 -53.8125 60.91769908 -53.8125 71.4375 C-47.81398233 69.55484942 -42.10139174 67.35609097 -36.40234375 64.70703125 C-35.63177139 64.35291672 -34.86119904 63.99880219 -34.067276 63.63395691 C-32.44526727 62.88735958 -30.82430107 62.13849346 -29.2043457 61.38745117 C-26.78262665 60.26512062 -24.35747124 59.1505205 -21.93164062 58.03710938 C-9.02749203 52.09542391 3.90696439 46.10114577 16.1875 38.9375 C16.78304688 38.59203125 17.37859375 38.2465625 17.9921875 37.890625 C19.39311206 37.07718493 20.79075138 36.25808982 22.1875 35.4375 C22.1875 34.4475 22.1875 33.4575 22.1875 32.4375 C15.31857218 25.81100493 4.67674367 24.30941119 -4.4375 24.0625 C-16.92817951 24.43424641 -27.40453182 29.41194288 -36 38.5625 Z " fill="#1D2021" transform="translate(1514.8125,73.5625)"/>
<path d="M0 0 C2.64865719 0.00851971 5.29515739 -0.02035895 7.94360352 -0.05200195 C22.55118531 -0.11277748 35.25023016 1.80526703 46.46118164 12.03588867 C54.47414801 20.50730834 54.71899414 28.697326 54.71899414 40.44604492 C45.47899414 40.44604492 36.23899414 40.44604492 26.71899414 40.44604492 C25.72899414 35.99104492 25.72899414 35.99104492 24.71899414 31.44604492 C21.08277849 26.37738069 16.58107332 24.85188041 10.71899414 23.44604492 C7.06118761 23.04644406 3.45798363 23.0251207 -0.21850586 23.07104492 C-1.1434082 23.05944336 -2.06831055 23.0478418 -3.02124023 23.03588867 C-11.83723333 23.07295662 -20.35270321 24.67245938 -27.28100586 30.44604492 C-30.87296974 34.93599977 -33.40655286 39.66568534 -33.21069336 45.56323242 C-32.85941864 48.65671627 -32.26563711 51.49215118 -31.28100586 54.44604492 C-22.0670282 59.35931556 -8.92752197 59.3671053 1.27319336 60.74560547 C16.33972798 62.79862473 29.67262931 64.65096801 40.96899414 75.63354492 C48.05237165 87.01754449 47.98443992 98.93807124 45.46899414 111.82104492 C43.52301375 119.91559246 40.62685728 126.6977331 35.71899414 133.44604492 C34.91461914 134.65260742 34.91461914 134.65260742 34.09399414 135.88354492 C22.3666073 148.53677809 5.58068803 151.90944712 -10.99291992 152.55102539 C-48.97138962 153.58423486 -48.97138962 153.58423486 -63.78100586 141.19604492 C-68.04208894 137.09911271 -70.56618136 133.08663117 -72.28100586 127.44604492 C-72.47436523 126.85952148 -72.66772461 126.27299805 -72.86694336 125.66870117 C-73.48441556 122.35415702 -73.38443698 119.05312086 -73.34350586 115.69604492 C-73.32288086 113.30354492 -73.30225586 110.91104492 -73.28100586 108.44604492 C-64.04100586 108.44604492 -54.80100586 108.44604492 -45.28100586 108.44604492 C-44.95100586 111.41604492 -44.62100586 114.38604492 -44.28100586 117.44604492 C-41.71805688 122.3888751 -38.88926899 125.28859171 -33.53735352 127.00537109 C-28.67541122 127.9549281 -23.64895143 127.71229022 -18.71118164 127.74121094 C-17.35170031 127.75267722 -15.99226208 127.77304379 -14.63305664 127.80273438 C-4.679008 128.01975931 3.8348666 127.60274921 11.65649414 120.94604492 C12.33711914 120.12104492 13.01774414 119.29604492 13.71899414 118.44604492 C14.27586914 117.84791992 14.83274414 117.24979492 15.40649414 116.63354492 C19.03080009 110.59303501 19.28526205 104.16583948 17.71899414 97.44604492 C16.79203536 94.82294878 15.91208045 93.60707891 13.76586914 91.81713867 C9.30161619 89.80822484 4.78876379 89.22876703 -0.03100586 88.50854492 C-1.07853027 88.34161133 -2.12605469 88.17467773 -3.20532227 88.00268555 C-8.82140812 87.11158769 -14.44480929 86.27301364 -20.07006836 85.44213867 C-21.17253906 85.27512451 -22.27500977 85.10811035 -23.41088867 84.93603516 C-25.51533628 84.61827813 -27.6214255 84.3111408 -29.72924805 84.01660156 C-38.26256309 82.72784784 -48.65196064 80.58998899 -54.28100586 73.44604492 C-61.52974006 61.16583639 -62.97525772 50.15967172 -59.65600586 36.32104492 C-56.60502872 24.58024343 -50.57704146 14.87705191 -40.07788086 8.50073242 C-27.00356617 1.45613275 -14.65047119 -0.07174304 0 0 Z " fill="#1D2021" transform="translate(425.281005859375,60.553955078125)"/>
<path d="M0 0 C8.91 0 17.82 0 27 0 C25.85187625 14.92560874 25.85187625 14.92560874 24.69311523 21.82861328 C24.56617279 22.61263519 24.43923035 23.3966571 24.30844116 24.20443726 C24.0368598 25.87811656 23.76291272 27.55141353 23.48672295 29.22433853 C23.04836921 31.88230931 22.6174978 34.54140256 22.18849182 37.20089722 C20.96904586 44.75231519 19.73656992 52.30158671 18.49926758 59.85009766 C17.73868397 64.49344335 16.98660268 69.13810546 16.23942757 73.78362656 C15.95528662 75.53904579 15.66787685 77.29393947 15.37698174 79.04825211 C11.75438767 99.27681334 11.75438767 99.27681334 18 118.3125 C22.29918709 122.93348253 28.72495176 124.5946046 34.80859375 125.34765625 C45.01305557 125.68056777 54.27295006 122.77785378 62 116 C72.16915343 104.38134586 73.43120116 88.81095596 75.63671875 74.1796875 C75.96381946 72.0677121 76.2920286 69.9559081 76.62129211 67.8442688 C77.48034366 62.31914775 78.32678976 56.79217602 79.1697998 51.2645874 C80.52640478 42.3823595 81.90128548 33.50295069 83.27814674 24.62384415 C83.75716608 21.52167101 84.23014809 18.41862158 84.70231628 15.31539917 C84.99239617 13.43013276 85.28261561 11.54488781 85.57299805 9.65966797 C85.70337967 8.79222458 85.83376129 7.92478119 85.96809387 7.03105164 C86.88651425 1.11348575 86.88651425 1.11348575 88 0 C89.99964982 -0.08758003 92.0023611 -0.10696576 94.00390625 -0.09765625 C95.21884766 -0.09443359 96.43378906 -0.09121094 97.68554688 -0.08789062 C98.96494141 -0.07951172 100.24433594 -0.07113281 101.5625 -0.0625 C102.84576172 -0.05798828 104.12902344 -0.05347656 105.45117188 -0.04882812 C108.63416246 -0.03699545 111.81705102 -0.01967354 115 0 C114.37641364 10.69342022 112.67544632 21.18348986 110.98046875 31.74609375 C110.67747593 33.64834192 110.37460652 35.55060975 110.07185364 37.45289612 C109.43874194 41.42297871 108.80191771 45.39244563 108.1628418 49.36157227 C107.34994064 54.41418128 106.54977095 59.46871577 105.75283337 64.52386379 C105.13207831 68.44829907 104.50275338 72.37132606 103.87111855 76.29402351 C103.57272549 78.15561128 103.27730766 80.01767876 102.98509789 81.88024712 C99.49011897 104.10530012 94.24852192 124.71988876 75.125 138.8125 C58.22172818 149.86463927 39.03764095 152.16861183 19.2734375 149.49609375 C16.40163033 148.84678334 13.74885423 148.04940803 11 147 C9.70255859 146.50693359 9.70255859 146.50693359 8.37890625 146.00390625 C-1.75859849 141.54463856 -8.28831653 134.00784144 -12.84765625 124.04296875 C-17.72181855 111.17187576 -16.12034393 98.11077669 -13.98828125 84.83203125 C-13.77532998 83.46721019 -13.56312366 82.10227272 -13.35160828 80.73722839 C-12.79370698 77.14976459 -12.22589011 73.56394143 -11.65582275 69.97839355 C-11.09601936 66.4468054 -10.54539249 62.9137906 -9.99414062 59.38085938 C-9.11762245 53.76936533 -8.2339781 48.1590377 -7.34619141 42.54931641 C-6.41170922 36.64238317 -5.49466024 30.73295003 -4.58740234 24.82177734 C-4.24525264 22.60075344 -3.90286529 20.3797663 -3.56041527 18.15878868 C-3.34184433 16.73647608 -3.12444336 15.31398315 -2.90825844 13.89130592 C-2.61002732 11.92927996 -2.30744385 9.96791704 -2.00463867 8.0065918 C-1.83421555 6.89164841 -1.66379242 5.77670502 -1.48820496 4.62797546 C-1 2 -1 2 0 0 Z " fill="#1D2021" transform="translate(531,63)"/>
<path d="M0 0 C1.02416016 -0.020625 2.04832031 -0.04125 3.10351562 -0.0625 C8.64114458 -0.09117381 12.85376732 -0.02697169 17.5625 3.25 C20.40519652 7.51404478 20.18609076 11.24568417 19.5625 16.25 C17.16461978 21.32243894 14.67014273 23.14823437 9.5625 25.25 C6.65853418 25.77040251 3.75295218 25.9758392 0.8125 26.1875 C-11.71800888 27.38779351 -19.75354367 30.75192276 -28.4375 40.25 C-36.20576631 50.06437217 -39.4973941 63.28180058 -42.4375 75.25 C-41.31778809 75.23428955 -40.19807617 75.2185791 -39.04443359 75.20239258 C-34.87360889 75.14792106 -30.70281538 75.11358748 -26.53173828 75.08520508 C-24.72960108 75.0701576 -22.92750027 75.0497147 -21.12548828 75.02368164 C-18.52887979 74.98711979 -15.93275725 74.97023319 -13.3359375 74.95703125 C-12.13558365 74.93380547 -12.13558365 74.93380547 -10.91098022 74.91011047 C-5.16191885 74.90839715 -0.97231762 75.96866415 3.4375 79.9375 C5.67034384 84.52723457 5.0049512 88.81203361 3.5625 93.5 C0.22037883 98.09541661 -4.03489294 99.84408952 -9.56176758 100.77783203 C-13.65300516 101.2762543 -17.66159239 101.47211033 -21.77734375 101.56640625 C-22.54430069 101.58718735 -23.31125763 101.60796844 -24.10145569 101.62937927 C-26.52588872 101.69420832 -28.95042013 101.75344621 -31.375 101.8125 C-33.02930662 101.85574879 -34.68360367 101.89936499 -36.33789062 101.94335938 C-40.37099566 102.04982024 -44.40419859 102.15127062 -48.4375 102.25 C-48.61925781 104.1371875 -48.61925781 104.1371875 -48.8046875 106.0625 C-49.29696451 110.48098633 -50.08068507 114.79297674 -50.94726562 119.15136719 C-52.98891968 129.43417405 -54.69344114 139.72840161 -56.1484375 150.109375 C-56.29620636 151.16306274 -56.44397522 152.21675049 -56.59622192 153.30236816 C-57.33344813 158.59024568 -58.05563564 163.87981885 -58.76220703 169.171875 C-65.51546902 218.88559596 -65.51546902 218.88559596 -74.4375 227.25 C-79.12140703 230.11978987 -84.11133387 229.91281179 -89.4375 229.25 C-92.43947464 227.44881522 -93.88916366 226.34667268 -95.4375 223.25 C-96.14097485 216.57369293 -94.71244816 210.88627305 -92.75 204.5625 C-88.99328005 191.51974122 -86.87922196 178.32513155 -84.84490967 164.92462158 C-84.38094136 161.87869569 -83.91163567 158.83361512 -83.44189453 155.78857422 C-82.32889317 148.56850156 -81.22495256 141.34707125 -80.125 134.125 C-79.94197327 132.92559784 -79.75894653 131.72619568 -79.57037354 130.490448 C-79.04738825 127.05403636 -78.52880131 123.61699171 -78.01171875 120.1796875 C-77.85260513 119.13618637 -77.69349152 118.09268524 -77.52955627 117.01756287 C-77.31322792 115.5700338 -77.31322792 115.5700338 -77.0925293 114.09326172 C-76.96549118 113.251091 -76.83845306 112.40892029 -76.70756531 111.54122925 C-76.35946078 108.97243177 -76.35946078 108.97243177 -76.4375 105.25 C-77.67113281 105.35828125 -77.67113281 105.35828125 -78.9296875 105.46875 C-99.79019832 107.20311118 -99.79019832 107.20311118 -105.4375 103.25 C-108.0769105 99.89075027 -107.78773412 96.38276256 -107.4375 92.25 C-106.13071452 87.96664759 -105.09919518 85.79406049 -101.625 82.9375 C-91.62213099 77.64186346 -80.52617954 78.05354702 -69.4375 78.25 C-69.19966797 77.02990234 -69.19966797 77.02990234 -68.95703125 75.78515625 C-64.09625674 51.91096543 -56.84019757 24.66213552 -36.1328125 9.5703125 C-24.87358052 2.33994308 -13.13996277 0.06590577 0 0 Z " fill="#1D2021" transform="translate(1271.4375,1.75)"/>
<path d="M0 0 C8.00925147 6.20752179 11.93996607 15.87648209 13.22265625 25.72265625 C13.91358069 37.46837178 12.38579834 48.18589843 10.22265625 59.72265625 C0.98265625 59.72265625 -8.25734375 59.72265625 -17.77734375 59.72265625 C-17.44734375 57.26828125 -17.11734375 54.81390625 -16.77734375 52.28515625 C-14.97915603 38.69313439 -14.97915603 38.69313439 -18.77734375 25.72265625 C-23.79462185 20.22754215 -29.62329849 18.1026629 -36.89453125 17.4375 C-47.94876062 17.13838556 -56.51082249 19.18666477 -64.77734375 26.72265625 C-70.45546393 32.71622755 -73.21589045 40.03254932 -74.82739258 48.00048828 C-74.99150792 48.77562838 -75.15562326 49.55076847 -75.3247118 50.34939766 C-77.17139718 59.27596008 -78.58673217 68.27065475 -79.9765625 77.27734375 C-80.25936283 79.08058159 -80.542725 80.88373139 -80.82661438 82.6867981 C-81.56265027 87.36962565 -82.29223745 92.05343229 -83.02001953 96.73754883 C-84.1932494 104.28112068 -85.37658452 111.82311392 -86.55985451 119.36511612 C-86.97010579 121.98609366 -87.37757822 124.60749134 -87.78459167 127.22897339 C-88.0343184 128.82827594 -88.28409684 130.42757041 -88.53393555 132.02685547 C-88.64561569 132.75095612 -88.75729584 133.47505676 -88.87236023 134.22109985 C-89.37805357 137.44591363 -89.98441115 140.55092583 -90.77734375 143.72265625 C-99.68734375 143.72265625 -108.59734375 143.72265625 -117.77734375 143.72265625 C-117.21003915 134.38642492 -116.24637139 125.27718607 -114.75195312 116.04785156 C-114.54858841 114.76154846 -114.34522369 113.47524536 -114.13569641 112.14996338 C-113.58537532 108.67054491 -113.02770268 105.1923438 -112.46837044 101.71436405 C-111.88166808 98.05912553 -111.30132515 94.40287667 -110.72009277 90.74676514 C-109.74572493 84.62380967 -108.76671421 78.50161119 -107.78466797 72.37988281 C-106.64921858 65.30163943 -105.52038528 58.22236553 -104.3951869 51.14248586 C-103.30968839 44.31291123 -102.22041178 37.48394505 -101.12910461 30.65529633 C-100.66551944 27.75439181 -100.20311351 24.85330296 -99.74162292 21.95206451 C-99.09928297 17.9156447 -98.45133763 13.88014467 -97.80273438 9.84472656 C-97.61153519 8.63961426 -97.420336 7.43450195 -97.2233429 6.19287109 C-97.04671616 5.09968567 -96.87008942 4.00650024 -96.68811035 2.88018799 C-96.53546974 1.92680164 -96.38282913 0.9734153 -96.22556305 -0.00886154 C-95.77734375 -2.27734375 -95.77734375 -2.27734375 -94.77734375 -4.27734375 C-85.86734375 -4.27734375 -76.95734375 -4.27734375 -67.77734375 -4.27734375 C-68.43734375 1.99265625 -69.09734375 8.26265625 -69.77734375 14.72265625 C-68.76671875 13.36140625 -67.75609375 12.00015625 -66.71484375 10.59765625 C-51.07212845 -9.41119846 -21.37799019 -13.78897307 0 0 Z M-71.77734375 17.72265625 C-70.77734375 19.72265625 -70.77734375 19.72265625 -70.77734375 19.72265625 Z " fill="#1D2021" transform="translate(1111.77734375,67.27734375)"/>
<path d="M0 0 C2.83984375 1.53515625 2.83984375 1.53515625 5 4 C6.15098585 9.87739463 5.86809855 14.7958878 4.83886719 20.65380859 C4.6355566 21.88939199 4.6355566 21.88939199 4.42813873 23.14993668 C3.97897909 25.85979085 3.51328307 28.56650308 3.046875 31.2734375 C2.72361823 33.19660448 2.4011018 35.11989603 2.07928467 37.04330444 C1.07196404 43.03220944 0.03941577 49.01659154 -1 55 C-1.16092133 55.92776749 -1.32184265 56.85553497 -1.48764038 57.81141663 C-3.68918821 70.48679613 -5.95150044 83.15098022 -8.24110413 95.81072235 C-8.75987594 98.67961559 -9.2776605 101.54868575 -9.79528809 104.41778564 C-13.97016365 127.54647215 -18.16551036 150.67222225 -22.56213379 173.75994873 C-23.01475571 176.13868378 -23.46462035 178.51794543 -23.91149902 180.89776611 C-24.519956 184.12908107 -25.14067002 187.35777831 -25.765625 190.5859375 C-25.93477417 191.49325623 -26.10392334 192.40057495 -26.27819824 193.33538818 C-29.49810082 209.6648941 -29.49810082 209.6648941 -34.8125 214.625 C-41.04325102 217.31277495 -45.64559398 217.44400232 -52 215 C-54.79885305 212.72371475 -55.00439517 211.98029887 -55.84155273 208.2277832 C-56.37392543 201.47401027 -54.83135843 194.95045093 -53.53515625 188.35546875 C-53.26318982 186.92088554 -52.99241933 185.48607515 -52.72276306 184.05105591 C-52.14867422 181.00885737 -51.56671119 177.96831854 -50.97827148 174.92886353 C-50.04950216 170.13047806 -49.13941897 165.32866489 -48.23242188 160.52612305 C-47.03191992 154.17614699 -45.82539755 147.82735427 -44.61376953 141.47949219 C-42.69722745 131.43204237 -40.82896359 121.37625691 -39 111.3125 C-38.85439636 110.51583923 -38.70879272 109.71917847 -38.55877686 108.89837646 C-36.34814654 96.78976111 -34.24712296 84.66299215 -32.1694603 72.53100014 C-31.73031269 69.96783914 -31.29034712 67.40481985 -30.85012817 64.84184265 C-30.55436532 63.1194182 -30.25861953 61.39699082 -29.96289062 59.67456055 C-29.81575056 58.81765719 -29.6686105 57.96075384 -29.51701164 57.07788372 C-28.63771558 51.95218806 -27.76558355 46.8253344 -26.89873791 41.6975193 C-26.35260311 38.47507671 -25.80069048 35.25364108 -25.24746132 32.03240967 C-24.98952187 30.52282439 -24.7340705 29.01281152 -24.48131371 27.50234985 C-20.69427826 4.8895205 -20.69427826 4.8895205 -15.07421875 0.8125 C-10.32603469 -1.04742897 -4.9528065 -0.8988197 0 0 Z " fill="#1D2021" transform="translate(1424,0)"/>
<path d="M0 0 C0.79096069 -0.00619858 1.58192139 -0.01239716 2.39685059 -0.01878357 C4.05736063 -0.02583924 5.71794206 -0.02278266 7.37841797 -0.01000977 C9.90075223 0.00387598 12.41938307 -0.03029573 14.94140625 -0.06835938 C30.53461666 -0.14373044 30.53461666 -0.14373044 36.40625 5.56640625 C37.39044922 6.44425781 37.39044922 6.44425781 38.39453125 7.33984375 C43.25216169 13.21485402 45.57127913 18.04318581 45.4765625 25.8046875 C45.46641113 26.88403564 45.45625977 27.96338379 45.44580078 29.07543945 C45.43274902 29.8974585 45.41969727 30.71947754 45.40625 31.56640625 C46.04732413 31.56364087 46.68839827 31.56087549 47.34889889 31.55802631 C62.97425378 31.49166668 78.59955939 31.44207725 94.22502041 31.41096973 C101.78149424 31.3955251 109.3378738 31.3744818 116.89428711 31.34008789 C123.48329247 31.31011165 130.07222953 31.29081379 136.6613012 31.28414077 C140.14761793 31.28024237 143.63373931 31.27113134 147.11999321 31.24921608 C151.01940343 31.22490427 154.91862551 31.22444152 158.81811523 31.22583008 C159.96395081 31.21504425 161.10978638 31.20425842 162.29034424 31.19314575 C172.33611642 31.23177191 180.93685599 33.07393463 188.2578125 40.42578125 C192.26167764 44.80861305 195.40625 48.39804576 195.40625 54.56640625 C196.30085937 54.50839844 197.19546875 54.45039062 198.1171875 54.390625 C206.56222278 54.07551174 212.27003722 54.962398 219.40625 59.56640625 C219.40625 60.22640625 219.40625 60.88640625 219.40625 61.56640625 C220.06625 61.56640625 220.72625 61.56640625 221.40625 61.56640625 C222.26881525 62.98655832 223.09453335 64.42909013 223.90625 65.87890625 C224.3703125 66.67941406 224.834375 67.47992188 225.3125 68.3046875 C228.24273516 77.04306736 225.93142992 85.89105523 223.51171875 94.484375 C223.05667465 96.16470573 223.05667465 96.16470573 222.59243774 97.87898254 C221.60625381 101.50776599 220.60052062 105.13078582 219.59375 108.75390625 C218.90667839 111.26206385 218.22073331 113.7705303 217.53588867 116.27929688 C216.15840249 121.31760398 214.77310864 126.35366687 213.38183594 131.38818359 C211.59220282 137.87341339 209.84056529 144.36823183 208.1015625 150.8671875 C207.37027045 153.58489727 206.63777616 156.30227829 205.90444946 159.0194397 C205.4518897 160.70043064 205.00162528 162.38204145 204.55380249 164.06430054 C199.12037749 184.42826627 199.12037749 184.42826627 192.78125 190.75390625 C192.19085938 191.36621094 191.60046875 191.97851562 190.9921875 192.609375 C181.11560739 200.08394696 171.90180662 200.29170615 159.97241211 200.22924805 C158.11363196 200.23767136 156.25486035 200.24820096 154.39610291 200.26066589 C149.37130494 200.28762554 144.34700528 200.28303724 139.32216716 200.27096534 C135.11979092 200.26381492 130.91750571 200.27234604 126.71513659 200.28087074 C116.7998345 200.30079405 106.8847737 200.29528505 96.96948242 200.27319336 C86.75364087 200.25081828 76.53843088 200.26844883 66.32264894 200.30624264 C57.53591863 200.33750311 48.74938356 200.34538491 39.96260458 200.3342889 C34.72139849 200.32781163 29.48055692 200.32975788 24.23939323 200.3536129 C19.3118001 200.37490107 14.38509696 200.36684006 9.45755959 200.33651924 C7.65366104 200.330205 5.84969301 200.33402082 4.04584503 200.34893036 C-13.52695754 200.48236197 -13.52695754 200.48236197 -20.59375 193.56640625 C-25.6800668 188.34967107 -26.84068 182.94688352 -26.86117554 175.79998779 C-26.86570665 175.14446497 -26.87023776 174.48894215 -26.87490618 173.813555 C-26.88750397 171.63051322 -26.88593284 169.4477224 -26.88427734 167.26464844 C-26.89026557 165.69379864 -26.89707179 164.12295178 -26.90463257 162.55210876 C-26.92227174 158.29364817 -26.92698712 154.035268 -26.92826414 149.77677441 C-26.9296877 147.11291612 -26.93396121 144.44907815 -26.93925858 141.78522491 C-26.9577533 132.48229173 -26.96593005 123.1794158 -26.96435547 113.87646484 C-26.96315483 105.22068302 -26.98424326 96.56515085 -27.0158428 87.90943217 C-27.04204485 80.4654679 -27.05272109 73.02158497 -27.05144465 65.57757497 C-27.05093609 61.13724691 -27.05656023 56.69714073 -27.07780075 52.25685883 C-27.09724904 48.07721887 -27.09726295 43.89801089 -27.08276749 39.71835518 C-27.0806863 38.1906146 -27.08533891 36.66284651 -27.0974884 35.13515282 C-27.18093597 23.90870733 -25.91014078 14.96376628 -18.546875 6.13671875 C-12.8195423 1.53194326 -7.24618589 -0.04837535 0 0 Z M-15.59375 8.56640625 C-15.59375 9.22640625 -15.59375 9.88640625 -15.59375 10.56640625 C-16.25375 10.56640625 -16.91375 10.56640625 -17.59375 10.56640625 C-22.5760458 18.47955512 -23.29450416 25.05703918 -23.16137695 34.27783203 C-23.15996355 35.62904304 -23.16076416 36.98025788 -23.16358948 38.33146667 C-23.1650137 41.96953204 -23.13578786 45.6067593 -23.10071969 49.24463129 C-23.06928827 53.05756442 -23.06651232 56.87052053 -23.06059265 60.68356323 C-23.04510315 67.8905632 -23.00414182 75.09718021 -22.9538452 82.30401218 C-22.89779844 90.51443261 -22.87042687 98.72487213 -22.84536803 106.93543649 C-22.79322091 123.81264726 -22.70537498 140.68948616 -22.59375 157.56640625 C-20.85129139 154.95271834 -20.20407821 153.63167849 -19.47265625 150.71875 C-19.26503662 149.90672119 -19.05741699 149.09469238 -18.84350586 148.25805664 C-18.50331421 146.8947522 -18.50331421 146.8947522 -18.15625 145.50390625 C-17.62814738 143.4386631 -17.09944874 141.37357232 -16.5703125 139.30859375 C-16.26641602 138.11588867 -15.96251953 136.92318359 -15.64941406 135.69433594 C-13.70914081 128.09387865 -11.73405794 120.5024192 -9.75534058 112.91189575 C-9.04716775 110.19008496 -8.34391103 107.46703632 -7.64086914 104.74389648 C1.97224858 67.70195529 1.97224858 67.70195529 14.84375 58.9765625 C20.04079138 56.11660528 24.60586992 55.31439002 30.50570679 55.28793335 C31.19687013 55.28214095 31.88803348 55.27634855 32.60014117 55.27038062 C34.90323461 55.25345064 37.20612682 55.25051022 39.50927734 55.24755859 C41.16531868 55.23825557 42.82135534 55.22808634 44.47738647 55.21711731 C48.96448147 55.18984543 53.45154512 55.17467622 57.93870115 55.16168928 C62.63125925 55.14604646 67.32375344 55.11925989 72.01626587 55.09365845 C80.8983666 55.04689108 89.78047937 55.01013707 98.66264021 54.97698557 C108.77629029 54.93874978 118.88987616 54.88934342 129.00347209 54.83900142 C149.80435064 54.73571193 170.60526984 54.6464418 191.40625 54.56640625 C190.19385655 47.80945411 186.78086159 43.48630498 181.46875 39.19140625 C173.97246404 35.21378513 167.10914824 35.28858433 158.76977539 35.33935547 C157.5105426 35.33906342 156.25130981 35.33877136 154.95391846 35.33847046 C151.51843427 35.33789901 148.08309107 35.34961937 144.64763951 35.36361837 C141.05086189 35.37616064 137.45408067 35.37729898 133.85728455 35.37966919 C127.05407934 35.38587372 120.25093876 35.40227056 113.44776195 35.42236817 C105.69926765 35.44475922 97.95077018 35.45572865 90.20225155 35.46575904 C74.27021366 35.48663775 58.33824018 35.52179365 42.40625 35.56640625 C42.41930176 34.83325195 42.43235352 34.10009766 42.44580078 33.34472656 C42.45595215 32.37116211 42.46610352 31.39759766 42.4765625 30.39453125 C42.48961426 29.43450195 42.50266602 28.47447266 42.51611328 27.48535156 C42.25694175 20.59945202 40.24252676 14.10477235 35.30810547 9.14916992 C27.72731989 2.84028252 18.2947792 2.92188929 8.90625 3.00390625 C7.65199219 2.98005859 6.39773437 2.95621094 5.10546875 2.93164062 C-2.98743342 2.94435199 -8.74653126 4.18326957 -15.59375 8.56640625 Z M6.85237122 69.35144043 C2.47452816 76.05680691 0.51314262 84.18033208 -1.51171875 91.84765625 C-1.77049805 92.80781143 -2.02927734 93.76796661 -2.29589844 94.75721741 C-3.13021318 97.85874129 -3.95585474 100.96249801 -4.78125 104.06640625 C-5.35733864 106.21489385 -5.93392154 108.36324898 -6.51098633 110.51147461 C-8.2142325 116.86073565 -9.90588895 123.21304007 -11.59375 129.56640625 C-11.83899414 130.48915344 -12.08423828 131.41190063 -12.33691406 132.36260986 C-14.19047602 139.33894407 -16.04246324 146.31569059 -17.87768555 153.296875 C-18.2106665 154.56273437 -18.54364746 155.82859375 -18.88671875 157.1328125 C-19.1705542 158.21506104 -19.45438965 159.29730957 -19.74682617 160.41235352 C-20.36230571 162.70447809 -21.01013082 164.98799304 -21.67724609 167.265625 C-23.3593384 173.32366657 -23.84053126 180.03757002 -21.71875 186.04296875 C-18.39668794 191.87843302 -13.90329482 194.46322464 -7.59375 196.56640625 C-5.20932098 196.66751979 -2.82210628 196.70583735 -0.43554688 196.71357727 C0.29837815 196.71725396 1.03230318 196.72093065 1.78846836 196.72471875 C4.25481928 196.73575681 6.72112807 196.73959969 9.1875 196.7434082 C10.95332473 196.74967297 12.71914813 196.75631978 14.48497009 196.76332092 C20.29205405 196.78436929 26.09913828 196.79472679 31.90625 196.8046875 C33.90666721 196.80873533 35.90708429 196.81285226 37.90750122 196.81703758 C47.30958966 196.83609413 56.71167025 196.85032192 66.1137743 196.85864955 C76.9563237 196.86841197 87.7986684 196.89470354 98.64114571 196.93515044 C107.02687309 196.96535534 115.41254197 196.98012274 123.79832268 196.98343056 C128.80379185 196.98577685 133.80904246 196.99468184 138.81445312 197.01989174 C143.52916961 197.04325278 148.24352492 197.0473735 152.95828438 197.03713036 C154.68234016 197.03663677 156.4064142 197.04290466 158.13041496 197.0566864 C170.57449657 197.15054232 180.98733233 196.26189869 190.65234375 187.640625 C195.06732177 182.4193481 197.18372035 176.83137454 198.88671875 170.328125 C199.10083405 169.54233566 199.31494934 168.75654633 199.53555298 167.94694519 C200.23103953 165.38503825 200.91252746 162.81963922 201.59375 160.25390625 C202.07758397 158.46023724 202.56221334 156.66678261 203.04760742 154.87353516 C204.51429636 149.44147535 205.96195958 144.00445716 207.40625 138.56640625 C207.83620187 136.95099284 208.26621249 135.33559506 208.69628906 133.72021484 C210.24697047 127.89074026 211.7965027 122.06102402 213.32275391 116.22509766 C214.92184425 110.11673011 216.54371405 104.01969198 218.296875 97.953125 C218.58199951 96.95619629 218.86712402 95.95926758 219.16088867 94.93212891 C219.67199546 93.15862388 220.19420808 91.38824939 220.73168945 89.62255859 C222.58554598 83.16107811 223.93075243 75.76316096 221.57641602 69.28198242 C218.69928827 64.14181031 214.93917489 60.61828917 209.40625 58.56640625 C203.43531912 57.81894202 197.50026339 57.8820442 191.49072266 57.91943359 C189.66341787 57.91265241 187.83611992 57.90374648 186.00883484 57.8928833 C181.06027654 57.87013968 176.11224101 57.87890678 171.16367388 57.89477873 C165.97534339 57.90746714 160.78705667 57.89568909 155.59872437 57.8878479 C146.88474523 57.87875829 138.17097816 57.89071954 129.45703125 57.91455078 C119.39808687 57.94174359 109.33964953 57.93295844 99.28071749 57.90541875 C90.63074597 57.88268871 81.98092664 57.87954716 73.33093488 57.8926121 C68.17076082 57.90038739 63.01082461 57.90150152 57.85066605 57.88492966 C52.99622071 57.87042806 48.14242523 57.88061023 43.2880497 57.90940094 C41.511991 57.91598217 39.73587712 57.9141651 37.95984077 57.90308762 C25.34513951 57.83169453 15.21926669 58.89812516 6.85237122 69.35144043 Z " fill="#232628" transform="translate(26.59375,28.43359375)"/>
<path d="M0 0 C1.66869141 -0.02900391 1.66869141 -0.02900391 3.37109375 -0.05859375 C7.31578036 0.55459499 8.90578931 1.46256263 11.5625 4.4375 C12.61401763 9.3147598 12.50933679 13.22896059 11.55859375 18.1015625 C11.31568604 19.37185303 11.07277832 20.64214355 10.82250977 21.95092773 C10.54841833 23.32146752 10.2742461 24.69199115 10 26.0625 C9.72033589 27.50901514 9.44162492 28.95571485 9.16381836 30.40258789 C7.87934069 37.04303007 6.53052475 43.66525586 5.0703125 50.26953125 C1.10237708 68.33154114 -1.56948787 86.4544458 -3.98999023 104.78491211 C-4.13051819 105.82394684 -4.27104614 106.86298157 -4.41583252 107.9335022 C-4.67985407 109.88821261 -4.93628182 111.84397036 -5.18353271 113.8008728 C-6.19182527 121.21258808 -7.63055873 129.24181571 -13.4375 134.4375 C-19.44866288 136.92037162 -24.428021 136.71695755 -30.4375 134.4375 C-33.20410546 131.54168059 -33.84274786 129.56512548 -33.796875 125.6015625 C-33.52599821 115.61222843 -32.04610474 105.69999368 -30.6875 95.8125 C-30.53977142 94.72643463 -30.39204285 93.64036926 -30.23983765 92.52139282 C-27.60517026 73.40874053 -24.12910281 54.51608208 -20.25 35.625 C-19.99246948 34.35267517 -19.73493896 33.08035034 -19.46960449 31.76947021 C-18.73174587 28.1486582 -17.97367205 24.53278401 -17.20703125 20.91796875 C-16.98737198 19.84206985 -16.76771271 18.76617096 -16.54139709 17.65766907 C-15.09350303 11.01653699 -13.46549495 6.46549495 -8.58984375 1.58984375 C-5.64517451 0.0132967 -3.32613172 0.00384524 0 0 Z " fill="#1D2021" transform="translate(1331.4375,75.5625)"/>
<path d="M0 0 C3.09852817 2.20560256 4.47863175 4.91132291 5.5234375 8.44140625 C6.33956572 13.55070897 5.51287406 17.69594184 2.9609375 22.19140625 C-0.57475566 26.34895499 -4.61036958 29.21424152 -10.0390625 30.19140625 C-14.89562952 30.33166811 -18.69614921 29.8762733 -22.5390625 26.75390625 C-26.69380549 22.49529469 -26.49790288 19.10591195 -26.44921875 13.3125 C-25.80215565 8.3886579 -23.62689906 5.50517196 -20.0390625 2.19140625 C-14.64571772 -1.91780882 -6.30927571 -2.50195416 0 0 Z " fill="#1D2021" transform="translate(1354.0390625,14.80859375)"/>
</svg>
