<svg xmlns="http://www.w3.org/2000/svg" fill="none" viewBox="0 0 25 26">
  <path fill="#fff" fill-rule="evenodd" d="M15.22 7.77 12.06.94 8.91 7.77l-.15.29L7 6.3a1.18 1.18 0 1 0-1.68 1.68l1.75 1.74-.2.1-.04.02L0 13l6.83 3.16.24.11-1.75 1.76A1.18 1.18 0 1 0 7 19.7l1.76-1.76.15.3 3.15 6.82 3.16-6.83.12-.24 1.71 1.71a1.18 1.18 0 1 0 1.68-1.67L17 16.3l.29-.15L24.13 13 17.3 9.84 17 9.7l1.73-1.73a1.18 1.18 0 1 0-1.68-1.67L15.35 8a4.15 4.15 0 0 1-.12-.21l-.01-.03Zm-3.17.36-.42.9a7.27 7.27 0 0 1-3.55 3.55l-.9.42.9.42a7.27 7.27 0 0 1 3.55 3.55l.42.9.42-.9a7.27 7.27 0 0 1 3.55-3.55l.9-.42-.9-.42a7.27 7.27 0 0 1-3.55-3.55l-.42-.9Z" clip-rule="evenodd"/>
  <path fill="url(#a)" fill-rule="evenodd" d="M15.22 7.77 12.06.94 8.91 7.77l-.15.29L7 6.3a1.18 1.18 0 1 0-1.68 1.68l1.75 1.74-.2.1-.04.02L0 13l6.83 3.16.24.11-1.75 1.76A1.18 1.18 0 1 0 7 19.7l1.76-1.76.15.3 3.15 6.82 3.16-6.83.12-.24 1.71 1.71a1.18 1.18 0 1 0 1.68-1.67L17 16.3l.29-.15L24.13 13 17.3 9.84 17 9.7l1.73-1.73a1.18 1.18 0 1 0-1.68-1.67L15.35 8a4.15 4.15 0 0 1-.12-.21l-.01-.03Zm-3.17.36-.42.9a7.27 7.27 0 0 1-3.55 3.55l-.9.42.9.42a7.27 7.27 0 0 1 3.55 3.55l.42.9.42-.9a7.27 7.27 0 0 1 3.55-3.55l.9-.42-.9-.42a7.27 7.27 0 0 1-3.55-3.55l-.42-.9Z" clip-rule="evenodd"/>
  <path fill="#fff" d="M22.27 4.43a1.18 1.18 0 1 0-1.67-1.68l-.57.57a1.18 1.18 0 0 0 1.68 1.67l.56-.56Z"/>
  <path fill="url(#a)" d="M22.27 4.43a1.18 1.18 0 1 0-1.67-1.68l-.57.57a1.18 1.18 0 0 0 1.68 1.67l.56-.56Z"/>
  <path fill="#fff" d="M4.2 5.18c-.46.46-1.2.46-1.67 0l-.56-.56a1.18 1.18 0 0 1 1.67-1.68l.57.57c.46.46.46 1.2 0 1.67Z"/>
  <path fill="url(#a)" d="M4.2 5.18c-.46.46-1.2.46-1.67 0l-.56-.56a1.18 1.18 0 0 1 1.67-1.68l.57.57c.46.46.46 1.2 0 1.67Z"/>
  <path fill="#fff" d="M4.2 20.82a1.18 1.18 0 0 0-1.67 0l-.56.56a1.18 1.18 0 0 0 1.67 1.68l.57-.57c.46-.46.46-1.2 0-1.67Z"/>
  <path fill="url(#a)" d="M4.2 20.82a1.18 1.18 0 0 0-1.67 0l-.56.56a1.18 1.18 0 0 0 1.67 1.68l.57-.57c.46-.46.46-1.2 0-1.67Z"/>
  <path fill="#fff" d="M22.27 21.57a1.18 1.18 0 0 1-1.67 1.68l-.57-.57a1.19 1.19 0 0 1 1.68-1.67l.56.56Z"/>
  <path fill="url(#a)" d="M22.27 21.57a1.18 1.18 0 0 1-1.67 1.68l-.57-.57a1.19 1.19 0 0 1 1.68-1.67l.56.56Z"/>
  <defs>
    <linearGradient id="a" x1="2.5" x2="21.61" y1="2.65" y2="25.4" gradientUnits="userSpaceOnUse">
      <stop stop-color="#FCDF9C"/>
      <stop offset="1" stop-color="#DA990B"/>
    </linearGradient>
  </defs>
</svg>
