<?xml version="1.0" encoding="UTF-8"?>
<svg version="1.1" xmlns="http://www.w3.org/2000/svg" width="253" height="199">
<path d="M0 0 C0.79096069 -0.00619858 1.58192139 -0.01239716 2.39685059 -0.01878357 C4.05736063 -0.02583924 5.71794206 -0.02278266 7.37841797 -0.01000977 C9.90075223 0.00387598 12.41938307 -0.03029573 14.94140625 -0.06835938 C30.53461666 -0.14373044 30.53461666 -0.14373044 36.40625 5.56640625 C37.39044922 6.44425781 37.39044922 6.44425781 38.39453125 7.33984375 C43.25216169 13.21485402 45.57127913 18.04318581 45.4765625 25.8046875 C45.46641113 26.88403564 45.45625977 27.96338379 45.44580078 29.07543945 C45.43274902 29.8974585 45.41969727 30.71947754 45.40625 31.56640625 C46.04732413 31.56364087 46.68839827 31.56087549 47.34889889 31.55802631 C62.97425378 31.49166668 78.59955939 31.44207725 94.22502041 31.41096973 C101.78149424 31.3955251 109.3378738 31.3744818 116.89428711 31.34008789 C123.48329247 31.31011165 130.07222953 31.29081379 136.6613012 31.28414077 C140.14761793 31.28024237 143.63373931 31.27113134 147.11999321 31.24921608 C151.01940343 31.22490427 154.91862551 31.22444152 158.81811523 31.22583008 C159.96395081 31.21504425 161.10978638 31.20425842 162.29034424 31.19314575 C172.33611642 31.23177191 180.93685599 33.07393463 188.2578125 40.42578125 C192.26167764 44.80861305 195.40625 48.39804576 195.40625 54.56640625 C196.30085937 54.50839844 197.19546875 54.45039062 198.1171875 54.390625 C206.56222278 54.07551174 212.27003722 54.962398 219.40625 59.56640625 C219.40625 60.22640625 219.40625 60.88640625 219.40625 61.56640625 C220.06625 61.56640625 220.72625 61.56640625 221.40625 61.56640625 C222.26881525 62.98655832 223.09453335 64.42909013 223.90625 65.87890625 C224.3703125 66.67941406 224.834375 67.47992188 225.3125 68.3046875 C228.24273516 77.04306736 225.93142992 85.89105523 223.51171875 94.484375 C223.05667465 96.16470573 223.05667465 96.16470573 222.59243774 97.87898254 C221.60625381 101.50776599 220.60052062 105.13078582 219.59375 108.75390625 C218.90667839 111.26206385 218.22073331 113.7705303 217.53588867 116.27929688 C216.15840249 121.31760398 214.77310864 126.35366687 213.38183594 131.38818359 C211.59220282 137.87341339 209.84056529 144.36823183 208.1015625 150.8671875 C207.37027045 153.58489727 206.63777616 156.30227829 205.90444946 159.0194397 C205.4518897 160.70043064 205.00162528 162.38204145 204.55380249 164.06430054 C199.12037749 184.42826627 199.12037749 184.42826627 192.78125 190.75390625 C192.19085938 191.36621094 191.60046875 191.97851562 190.9921875 192.609375 C181.11560739 200.08394696 171.90180662 200.29170615 159.97241211 200.22924805 C158.11363196 200.23767136 156.25486035 200.24820096 154.39610291 200.26066589 C149.37130494 200.28762554 144.34700528 200.28303724 139.32216716 200.27096534 C135.11979092 200.26381492 130.91750571 200.27234604 126.71513659 200.28087074 C116.7998345 200.30079405 106.8847737 200.29528505 96.96948242 200.27319336 C86.75364087 200.25081828 76.53843088 200.26844883 66.32264894 200.30624264 C57.53591863 200.33750311 48.74938356 200.34538491 39.96260458 200.3342889 C34.72139849 200.32781163 29.48055692 200.32975788 24.23939323 200.3536129 C19.3118001 200.37490107 14.38509696 200.36684006 9.45755959 200.33651924 C7.65366104 200.330205 5.84969301 200.33402082 4.04584503 200.34893036 C-13.52695754 200.48236197 -13.52695754 200.48236197 -20.59375 193.56640625 C-25.6800668 188.34967107 -26.84068 182.94688352 -26.86117554 175.79998779 C-26.86570665 175.14446497 -26.87023776 174.48894215 -26.87490618 173.813555 C-26.88750397 171.63051322 -26.88593284 169.4477224 -26.88427734 167.26464844 C-26.89026557 165.69379864 -26.89707179 164.12295178 -26.90463257 162.55210876 C-26.92227174 158.29364817 -26.92698712 154.035268 -26.92826414 149.77677441 C-26.9296877 147.11291612 -26.93396121 144.44907815 -26.93925858 141.78522491 C-26.9577533 132.48229173 -26.96593005 123.1794158 -26.96435547 113.87646484 C-26.96315483 105.22068302 -26.98424326 96.56515085 -27.0158428 87.90943217 C-27.04204485 80.4654679 -27.05272109 73.02158497 -27.05144465 65.57757497 C-27.05093609 61.13724691 -27.05656023 56.69714073 -27.07780075 52.25685883 C-27.09724904 48.07721887 -27.09726295 43.89801089 -27.08276749 39.71835518 C-27.0806863 38.1906146 -27.08533891 36.66284651 -27.0974884 35.13515282 C-27.18093597 23.90870733 -25.91014078 14.96376628 -18.546875 6.13671875 C-12.8195423 1.53194326 -7.24618589 -0.04837535 0 0 Z " fill="#FED8A0" transform="translate(26.59375,-0.56640625)"/>
<path d="M0 0 C0.79096069 -0.00619858 1.58192139 -0.01239716 2.39685059 -0.01878357 C4.05736063 -0.02583924 5.71794206 -0.02278266 7.37841797 -0.01000977 C9.90075223 0.00387598 12.41938307 -0.03029573 14.94140625 -0.06835938 C30.53461666 -0.14373044 30.53461666 -0.14373044 36.40625 5.56640625 C37.39044922 6.44425781 37.39044922 6.44425781 38.39453125 7.33984375 C43.25216169 13.21485402 45.57127913 18.04318581 45.4765625 25.8046875 C45.46641113 26.88403564 45.45625977 27.96338379 45.44580078 29.07543945 C45.43274902 29.8974585 45.41969727 30.71947754 45.40625 31.56640625 C46.04732413 31.56364087 46.68839827 31.56087549 47.34889889 31.55802631 C62.97425378 31.49166668 78.59955939 31.44207725 94.22502041 31.41096973 C101.78149424 31.3955251 109.3378738 31.3744818 116.89428711 31.34008789 C123.48329247 31.31011165 130.07222953 31.29081379 136.6613012 31.28414077 C140.14761793 31.28024237 143.63373931 31.27113134 147.11999321 31.24921608 C151.01940343 31.22490427 154.91862551 31.22444152 158.81811523 31.22583008 C159.96395081 31.21504425 161.10978638 31.20425842 162.29034424 31.19314575 C172.33611642 31.23177191 180.93685599 33.07393463 188.2578125 40.42578125 C192.26167764 44.80861305 195.40625 48.39804576 195.40625 54.56640625 C196.30085937 54.50839844 197.19546875 54.45039062 198.1171875 54.390625 C206.56222278 54.07551174 212.27003722 54.962398 219.40625 59.56640625 C219.40625 60.22640625 219.40625 60.88640625 219.40625 61.56640625 C220.06625 61.56640625 220.72625 61.56640625 221.40625 61.56640625 C222.26881525 62.98655832 223.09453335 64.42909013 223.90625 65.87890625 C224.3703125 66.67941406 224.834375 67.47992188 225.3125 68.3046875 C228.24273516 77.04306736 225.93142992 85.89105523 223.51171875 94.484375 C223.05667465 96.16470573 223.05667465 96.16470573 222.59243774 97.87898254 C221.60625381 101.50776599 220.60052062 105.13078582 219.59375 108.75390625 C218.90667839 111.26206385 218.22073331 113.7705303 217.53588867 116.27929688 C216.15840249 121.31760398 214.77310864 126.35366687 213.38183594 131.38818359 C211.59220282 137.87341339 209.84056529 144.36823183 208.1015625 150.8671875 C207.37027045 153.58489727 206.63777616 156.30227829 205.90444946 159.0194397 C205.4518897 160.70043064 205.00162528 162.38204145 204.55380249 164.06430054 C199.12037749 184.42826627 199.12037749 184.42826627 192.78125 190.75390625 C192.19085938 191.36621094 191.60046875 191.97851562 190.9921875 192.609375 C181.11560739 200.08394696 171.90180662 200.29170615 159.97241211 200.22924805 C158.11363196 200.23767136 156.25486035 200.24820096 154.39610291 200.26066589 C149.37130494 200.28762554 144.34700528 200.28303724 139.32216716 200.27096534 C135.11979092 200.26381492 130.91750571 200.27234604 126.71513659 200.28087074 C116.7998345 200.30079405 106.8847737 200.29528505 96.96948242 200.27319336 C86.75364087 200.25081828 76.53843088 200.26844883 66.32264894 200.30624264 C57.53591863 200.33750311 48.74938356 200.34538491 39.96260458 200.3342889 C34.72139849 200.32781163 29.48055692 200.32975788 24.23939323 200.3536129 C19.3118001 200.37490107 14.38509696 200.36684006 9.45755959 200.33651924 C7.65366104 200.330205 5.84969301 200.33402082 4.04584503 200.34893036 C-13.52695754 200.48236197 -13.52695754 200.48236197 -20.59375 193.56640625 C-25.6800668 188.34967107 -26.84068 182.94688352 -26.86117554 175.79998779 C-26.86570665 175.14446497 -26.87023776 174.48894215 -26.87490618 173.813555 C-26.88750397 171.63051322 -26.88593284 169.4477224 -26.88427734 167.26464844 C-26.89026557 165.69379864 -26.89707179 164.12295178 -26.90463257 162.55210876 C-26.92227174 158.29364817 -26.92698712 154.035268 -26.92826414 149.77677441 C-26.9296877 147.11291612 -26.93396121 144.44907815 -26.93925858 141.78522491 C-26.9577533 132.48229173 -26.96593005 123.1794158 -26.96435547 113.87646484 C-26.96315483 105.22068302 -26.98424326 96.56515085 -27.0158428 87.90943217 C-27.04204485 80.4654679 -27.05272109 73.02158497 -27.05144465 65.57757497 C-27.05093609 61.13724691 -27.05656023 56.69714073 -27.07780075 52.25685883 C-27.09724904 48.07721887 -27.09726295 43.89801089 -27.08276749 39.71835518 C-27.0806863 38.1906146 -27.08533891 36.66284651 -27.0974884 35.13515282 C-27.18093597 23.90870733 -25.91014078 14.96376628 -18.546875 6.13671875 C-12.8195423 1.53194326 -7.24618589 -0.04837535 0 0 Z M6.85237122 69.35144043 C2.47452816 76.05680691 0.51314262 84.18033208 -1.51171875 91.84765625 C-1.77049805 92.80781143 -2.02927734 93.76796661 -2.29589844 94.75721741 C-3.13021318 97.85874129 -3.95585474 100.96249801 -4.78125 104.06640625 C-5.35733864 106.21489385 -5.93392154 108.36324898 -6.51098633 110.51147461 C-8.2142325 116.86073565 -9.90588895 123.21304007 -11.59375 129.56640625 C-11.83899414 130.48915344 -12.08423828 131.41190063 -12.33691406 132.36260986 C-14.19047602 139.33894407 -16.04246324 146.31569059 -17.87768555 153.296875 C-18.2106665 154.56273437 -18.54364746 155.82859375 -18.88671875 157.1328125 C-19.1705542 158.21506104 -19.45438965 159.29730957 -19.74682617 160.41235352 C-20.36230571 162.70447809 -21.01013082 164.98799304 -21.67724609 167.265625 C-23.3593384 173.32366657 -23.84053126 180.03757002 -21.71875 186.04296875 C-18.39668794 191.87843302 -13.90329482 194.46322464 -7.59375 196.56640625 C-5.20932098 196.66751979 -2.82210628 196.70583735 -0.43554688 196.71357727 C0.29837815 196.71725396 1.03230318 196.72093065 1.78846836 196.72471875 C4.25481928 196.73575681 6.72112807 196.73959969 9.1875 196.7434082 C10.95332473 196.74967297 12.71914813 196.75631978 14.48497009 196.76332092 C20.29205405 196.78436929 26.09913828 196.79472679 31.90625 196.8046875 C33.90666721 196.80873533 35.90708429 196.81285226 37.90750122 196.81703758 C47.30958966 196.83609413 56.71167025 196.85032192 66.1137743 196.85864955 C76.9563237 196.86841197 87.7986684 196.89470354 98.64114571 196.93515044 C107.02687309 196.96535534 115.41254197 196.98012274 123.79832268 196.98343056 C128.80379185 196.98577685 133.80904246 196.99468184 138.81445312 197.01989174 C143.52916961 197.04325278 148.24352492 197.0473735 152.95828438 197.03713036 C154.68234016 197.03663677 156.4064142 197.04290466 158.13041496 197.0566864 C170.57449657 197.15054232 180.98733233 196.26189869 190.65234375 187.640625 C195.06732177 182.4193481 197.18372035 176.83137454 198.88671875 170.328125 C199.10083405 169.54233566 199.31494934 168.75654633 199.53555298 167.94694519 C200.23103953 165.38503825 200.91252746 162.81963922 201.59375 160.25390625 C202.07758397 158.46023724 202.56221334 156.66678261 203.04760742 154.87353516 C204.51429636 149.44147535 205.96195958 144.00445716 207.40625 138.56640625 C207.83620187 136.95099284 208.26621249 135.33559506 208.69628906 133.72021484 C210.24697047 127.89074026 211.7965027 122.06102402 213.32275391 116.22509766 C214.92184425 110.11673011 216.54371405 104.01969198 218.296875 97.953125 C218.58199951 96.95619629 218.86712402 95.95926758 219.16088867 94.93212891 C219.67199546 93.15862388 220.19420808 91.38824939 220.73168945 89.62255859 C222.58554598 83.16107811 223.93075243 75.76316096 221.57641602 69.28198242 C218.69928827 64.14181031 214.93917489 60.61828917 209.40625 58.56640625 C203.43531912 57.81894202 197.50026339 57.8820442 191.49072266 57.91943359 C189.66341787 57.91265241 187.83611992 57.90374648 186.00883484 57.8928833 C181.06027654 57.87013968 176.11224101 57.87890678 171.16367388 57.89477873 C165.97534339 57.90746714 160.78705667 57.89568909 155.59872437 57.8878479 C146.88474523 57.87875829 138.17097816 57.89071954 129.45703125 57.91455078 C119.39808687 57.94174359 109.33964953 57.93295844 99.28071749 57.90541875 C90.63074597 57.88268871 81.98092664 57.87954716 73.33093488 57.8926121 C68.17076082 57.90038739 63.01082461 57.90150152 57.85066605 57.88492966 C52.99622071 57.87042806 48.14242523 57.88061023 43.2880497 57.90940094 C41.511991 57.91598217 39.73587712 57.9141651 37.95984077 57.90308762 C25.34513951 57.83169453 15.21926669 58.89812516 6.85237122 69.35144043 Z " fill="#F7C078" transform="translate(26.59375,-0.56640625)"/>
<path d="M0 0 C0.79096069 -0.00619858 1.58192139 -0.01239716 2.39685059 -0.01878357 C4.05736063 -0.02583924 5.71794206 -0.02278266 7.37841797 -0.01000977 C9.90075223 0.00387598 12.41938307 -0.03029573 14.94140625 -0.06835938 C30.53461666 -0.14373044 30.53461666 -0.14373044 36.40625 5.56640625 C37.39044922 6.44425781 37.39044922 6.44425781 38.39453125 7.33984375 C43.25216169 13.21485402 45.57127913 18.04318581 45.4765625 25.8046875 C45.46641113 26.88403564 45.45625977 27.96338379 45.44580078 29.07543945 C45.43274902 29.8974585 45.41969727 30.71947754 45.40625 31.56640625 C46.04732413 31.56364087 46.68839827 31.56087549 47.34889889 31.55802631 C62.97425378 31.49166668 78.59955939 31.44207725 94.22502041 31.41096973 C101.78149424 31.3955251 109.3378738 31.3744818 116.89428711 31.34008789 C123.48329247 31.31011165 130.07222953 31.29081379 136.6613012 31.28414077 C140.14761793 31.28024237 143.63373931 31.27113134 147.11999321 31.24921608 C151.01940343 31.22490427 154.91862551 31.22444152 158.81811523 31.22583008 C159.96395081 31.21504425 161.10978638 31.20425842 162.29034424 31.19314575 C172.33611642 31.23177191 180.93685599 33.07393463 188.2578125 40.42578125 C192.26167764 44.80861305 195.40625 48.39804576 195.40625 54.56640625 C196.30085937 54.50839844 197.19546875 54.45039062 198.1171875 54.390625 C206.56222278 54.07551174 212.27003722 54.962398 219.40625 59.56640625 C219.40625 60.22640625 219.40625 60.88640625 219.40625 61.56640625 C220.06625 61.56640625 220.72625 61.56640625 221.40625 61.56640625 C222.26881525 62.98655832 223.09453335 64.42909013 223.90625 65.87890625 C224.3703125 66.67941406 224.834375 67.47992188 225.3125 68.3046875 C228.24273516 77.04306736 225.93142992 85.89105523 223.51171875 94.484375 C223.05667465 96.16470573 223.05667465 96.16470573 222.59243774 97.87898254 C221.60625381 101.50776599 220.60052062 105.13078582 219.59375 108.75390625 C218.90667839 111.26206385 218.22073331 113.7705303 217.53588867 116.27929688 C216.15840249 121.31760398 214.77310864 126.35366687 213.38183594 131.38818359 C211.59220282 137.87341339 209.84056529 144.36823183 208.1015625 150.8671875 C207.37027045 153.58489727 206.63777616 156.30227829 205.90444946 159.0194397 C205.4518897 160.70043064 205.00162528 162.38204145 204.55380249 164.06430054 C199.12037749 184.42826627 199.12037749 184.42826627 192.78125 190.75390625 C192.19085938 191.36621094 191.60046875 191.97851562 190.9921875 192.609375 C181.11560739 200.08394696 171.90180662 200.29170615 159.97241211 200.22924805 C158.11363196 200.23767136 156.25486035 200.24820096 154.39610291 200.26066589 C149.37130494 200.28762554 144.34700528 200.28303724 139.32216716 200.27096534 C135.11979092 200.26381492 130.91750571 200.27234604 126.71513659 200.28087074 C116.7998345 200.30079405 106.8847737 200.29528505 96.96948242 200.27319336 C86.75364087 200.25081828 76.53843088 200.26844883 66.32264894 200.30624264 C57.53591863 200.33750311 48.74938356 200.34538491 39.96260458 200.3342889 C34.72139849 200.32781163 29.48055692 200.32975788 24.23939323 200.3536129 C19.3118001 200.37490107 14.38509696 200.36684006 9.45755959 200.33651924 C7.65366104 200.330205 5.84969301 200.33402082 4.04584503 200.34893036 C-13.52695754 200.48236197 -13.52695754 200.48236197 -20.59375 193.56640625 C-25.6800668 188.34967107 -26.84068 182.94688352 -26.86117554 175.79998779 C-26.86570665 175.14446497 -26.87023776 174.48894215 -26.87490618 173.813555 C-26.88750397 171.63051322 -26.88593284 169.4477224 -26.88427734 167.26464844 C-26.89026557 165.69379864 -26.89707179 164.12295178 -26.90463257 162.55210876 C-26.92227174 158.29364817 -26.92698712 154.035268 -26.92826414 149.77677441 C-26.9296877 147.11291612 -26.93396121 144.44907815 -26.93925858 141.78522491 C-26.9577533 132.48229173 -26.96593005 123.1794158 -26.96435547 113.87646484 C-26.96315483 105.22068302 -26.98424326 96.56515085 -27.0158428 87.90943217 C-27.04204485 80.4654679 -27.05272109 73.02158497 -27.05144465 65.57757497 C-27.05093609 61.13724691 -27.05656023 56.69714073 -27.07780075 52.25685883 C-27.09724904 48.07721887 -27.09726295 43.89801089 -27.08276749 39.71835518 C-27.0806863 38.1906146 -27.08533891 36.66284651 -27.0974884 35.13515282 C-27.18093597 23.90870733 -25.91014078 14.96376628 -18.546875 6.13671875 C-12.8195423 1.53194326 -7.24618589 -0.04837535 0 0 Z M-15.59375 8.56640625 C-15.59375 9.22640625 -15.59375 9.88640625 -15.59375 10.56640625 C-16.25375 10.56640625 -16.91375 10.56640625 -17.59375 10.56640625 C-22.5760458 18.47955512 -23.29450416 25.05703918 -23.16137695 34.27783203 C-23.15996355 35.62904304 -23.16076416 36.98025788 -23.16358948 38.33146667 C-23.1650137 41.96953204 -23.13578786 45.6067593 -23.10071969 49.24463129 C-23.06928827 53.05756442 -23.06651232 56.87052053 -23.06059265 60.68356323 C-23.04510315 67.8905632 -23.00414182 75.09718021 -22.9538452 82.30401218 C-22.89779844 90.51443261 -22.87042687 98.72487213 -22.84536803 106.93543649 C-22.79322091 123.81264726 -22.70537498 140.68948616 -22.59375 157.56640625 C-20.85129139 154.95271834 -20.20407821 153.63167849 -19.47265625 150.71875 C-19.26503662 149.90672119 -19.05741699 149.09469238 -18.84350586 148.25805664 C-18.50331421 146.8947522 -18.50331421 146.8947522 -18.15625 145.50390625 C-17.62814738 143.4386631 -17.09944874 141.37357232 -16.5703125 139.30859375 C-16.26641602 138.11588867 -15.96251953 136.92318359 -15.64941406 135.69433594 C-13.70914081 128.09387865 -11.73405794 120.5024192 -9.75534058 112.91189575 C-9.04716775 110.19008496 -8.34391103 107.46703632 -7.64086914 104.74389648 C1.97224858 67.70195529 1.97224858 67.70195529 14.84375 58.9765625 C20.04079138 56.11660528 24.60586992 55.31439002 30.50570679 55.28793335 C31.19687013 55.28214095 31.88803348 55.27634855 32.60014117 55.27038062 C34.90323461 55.25345064 37.20612682 55.25051022 39.50927734 55.24755859 C41.16531868 55.23825557 42.82135534 55.22808634 44.47738647 55.21711731 C48.96448147 55.18984543 53.45154512 55.17467622 57.93870115 55.16168928 C62.63125925 55.14604646 67.32375344 55.11925989 72.01626587 55.09365845 C80.8983666 55.04689108 89.78047937 55.01013707 98.66264021 54.97698557 C108.77629029 54.93874978 118.88987616 54.88934342 129.00347209 54.83900142 C149.80435064 54.73571193 170.60526984 54.6464418 191.40625 54.56640625 C190.19385655 47.80945411 186.78086159 43.48630498 181.46875 39.19140625 C173.97246404 35.21378513 167.10914824 35.28858433 158.76977539 35.33935547 C157.5105426 35.33906342 156.25130981 35.33877136 154.95391846 35.33847046 C151.51843427 35.33789901 148.08309107 35.34961937 144.64763951 35.36361837 C141.05086189 35.37616064 137.45408067 35.37729898 133.85728455 35.37966919 C127.05407934 35.38587372 120.25093876 35.40227056 113.44776195 35.42236817 C105.69926765 35.44475922 97.95077018 35.45572865 90.20225155 35.46575904 C74.27021366 35.48663775 58.33824018 35.52179365 42.40625 35.56640625 C42.41930176 34.83325195 42.43235352 34.10009766 42.44580078 33.34472656 C42.45595215 32.37116211 42.46610352 31.39759766 42.4765625 30.39453125 C42.48961426 29.43450195 42.50266602 28.47447266 42.51611328 27.48535156 C42.25694175 20.59945202 40.24252676 14.10477235 35.30810547 9.14916992 C27.72731989 2.84028252 18.2947792 2.92188929 8.90625 3.00390625 C7.65199219 2.98005859 6.39773437 2.95621094 5.10546875 2.93164062 C-2.98743342 2.94435199 -8.74653126 4.18326957 -15.59375 8.56640625 Z M6.85237122 69.35144043 C2.47452816 76.05680691 0.51314262 84.18033208 -1.51171875 91.84765625 C-1.77049805 92.80781143 -2.02927734 93.76796661 -2.29589844 94.75721741 C-3.13021318 97.85874129 -3.95585474 100.96249801 -4.78125 104.06640625 C-5.35733864 106.21489385 -5.93392154 108.36324898 -6.51098633 110.51147461 C-8.2142325 116.86073565 -9.90588895 123.21304007 -11.59375 129.56640625 C-11.83899414 130.48915344 -12.08423828 131.41190063 -12.33691406 132.36260986 C-14.19047602 139.33894407 -16.04246324 146.31569059 -17.87768555 153.296875 C-18.2106665 154.56273437 -18.54364746 155.82859375 -18.88671875 157.1328125 C-19.1705542 158.21506104 -19.45438965 159.29730957 -19.74682617 160.41235352 C-20.36230571 162.70447809 -21.01013082 164.98799304 -21.67724609 167.265625 C-23.3593384 173.32366657 -23.84053126 180.03757002 -21.71875 186.04296875 C-18.39668794 191.87843302 -13.90329482 194.46322464 -7.59375 196.56640625 C-5.20932098 196.66751979 -2.82210628 196.70583735 -0.43554688 196.71357727 C0.29837815 196.71725396 1.03230318 196.72093065 1.78846836 196.72471875 C4.25481928 196.73575681 6.72112807 196.73959969 9.1875 196.7434082 C10.95332473 196.74967297 12.71914813 196.75631978 14.48497009 196.76332092 C20.29205405 196.78436929 26.09913828 196.79472679 31.90625 196.8046875 C33.90666721 196.80873533 35.90708429 196.81285226 37.90750122 196.81703758 C47.30958966 196.83609413 56.71167025 196.85032192 66.1137743 196.85864955 C76.9563237 196.86841197 87.7986684 196.89470354 98.64114571 196.93515044 C107.02687309 196.96535534 115.41254197 196.98012274 123.79832268 196.98343056 C128.80379185 196.98577685 133.80904246 196.99468184 138.81445312 197.01989174 C143.52916961 197.04325278 148.24352492 197.0473735 152.95828438 197.03713036 C154.68234016 197.03663677 156.4064142 197.04290466 158.13041496 197.0566864 C170.57449657 197.15054232 180.98733233 196.26189869 190.65234375 187.640625 C195.06732177 182.4193481 197.18372035 176.83137454 198.88671875 170.328125 C199.10083405 169.54233566 199.31494934 168.75654633 199.53555298 167.94694519 C200.23103953 165.38503825 200.91252746 162.81963922 201.59375 160.25390625 C202.07758397 158.46023724 202.56221334 156.66678261 203.04760742 154.87353516 C204.51429636 149.44147535 205.96195958 144.00445716 207.40625 138.56640625 C207.83620187 136.95099284 208.26621249 135.33559506 208.69628906 133.72021484 C210.24697047 127.89074026 211.7965027 122.06102402 213.32275391 116.22509766 C214.92184425 110.11673011 216.54371405 104.01969198 218.296875 97.953125 C218.58199951 96.95619629 218.86712402 95.95926758 219.16088867 94.93212891 C219.67199546 93.15862388 220.19420808 91.38824939 220.73168945 89.62255859 C222.58554598 83.16107811 223.93075243 75.76316096 221.57641602 69.28198242 C218.69928827 64.14181031 214.93917489 60.61828917 209.40625 58.56640625 C203.43531912 57.81894202 197.50026339 57.8820442 191.49072266 57.91943359 C189.66341787 57.91265241 187.83611992 57.90374648 186.00883484 57.8928833 C181.06027654 57.87013968 176.11224101 57.87890678 171.16367388 57.89477873 C165.97534339 57.90746714 160.78705667 57.89568909 155.59872437 57.8878479 C146.88474523 57.87875829 138.17097816 57.89071954 129.45703125 57.91455078 C119.39808687 57.94174359 109.33964953 57.93295844 99.28071749 57.90541875 C90.63074597 57.88268871 81.98092664 57.87954716 73.33093488 57.8926121 C68.17076082 57.90038739 63.01082461 57.90150152 57.85066605 57.88492966 C52.99622071 57.87042806 48.14242523 57.88061023 43.2880497 57.90940094 C41.511991 57.91598217 39.73587712 57.9141651 37.95984077 57.90308762 C25.34513951 57.83169453 15.21926669 58.89812516 6.85237122 69.35144043 Z " fill="#232628" transform="translate(26.59375,-0.56640625)"/>
<path d="M0 0 C2 2 2 2 2.3203125 4.6796875 C1.94037799 8.61803299 0.6513609 11.65437891 -1.125 15.125 C-1.40859375 15.73214844 -1.6921875 16.33929688 -1.984375 16.96484375 C-4.20655371 21.39953952 -6.65678111 23.66795503 -11 26 C-14.18699217 26.30644155 -16.13391871 26.43304064 -19 25 C-19 24.34 -19 23.68 -19 23 C-19.66 23 -20.32 23 -21 23 C-21.99 26.3 -22.98 29.6 -24 33 C-25.65 33 -27.3 33 -29 33 C-26.69138141 25.94180304 -24.23348867 18.9530323 -21.625 12 C-21.25117187 10.95199219 -20.87734375 9.90398437 -20.4921875 8.82421875 C-19.92757812 7.33341797 -19.92757812 7.33341797 -19.3515625 5.8125 C-18.85390381 4.46091797 -18.85390381 4.46091797 -18.34619141 3.08203125 C-17 1 -17 1 -14.54052734 0.19921875 C-12 0 -12 0 -9 0 C-5.88135455 -1.55932272 -3.33704665 -0.65549131 0 0 Z " fill="#282927" transform="translate(139,117)"/>
<path d="M0 0 C0 1.65 0 3.3 0 5 C-1.65 5 -3.3 5 -5 5 C-5.33 4.34 -5.66 3.68 -6 3 C-9.37400578 2.58274322 -9.37400578 2.58274322 -13 3 C-15.00864359 5.3726974 -15.00864359 5.3726974 -16 8 C-15.21753906 8.13277344 -14.43507813 8.26554687 -13.62890625 8.40234375 C-12.11103516 8.66724609 -12.11103516 8.66724609 -10.5625 8.9375 C-9.55316406 9.11152344 -8.54382813 9.28554687 -7.50390625 9.46484375 C-5 10 -5 10 -4 11 C-3.69944308 14.30612617 -3.83678575 16.58716396 -5.0625 19.6875 C-7.71009149 22.84752856 -10.08909171 23.76154571 -14 25 C-17.88039904 25.2630779 -21.28463298 25.18891745 -25 24 C-25.33 21.69 -25.66 19.38 -26 17 C-24.35 17 -22.7 17 -21 17 C-20.67 17.99 -20.34 18.98 -20 20 C-14.67829506 20.29562367 -14.67829506 20.29562367 -10 18 C-10 16.68 -10 15.36 -10 14 C-10.71027344 13.86722656 -11.42054687 13.73445312 -12.15234375 13.59765625 C-13.07144531 13.42105469 -13.99054688 13.24445313 -14.9375 13.0625 C-15.85402344 12.88847656 -16.77054688 12.71445313 -17.71484375 12.53515625 C-20 12 -20 12 -21 11 C-21.41749619 7.32603356 -21.27460061 5.46470872 -19.375 2.25 C-14.19160515 -2.6605846 -6.18389981 -3.95769588 0 0 Z " fill="#252625" transform="translate(112,118)"/>
<path d="M0 0 C-0.7578125 1.9453125 -0.7578125 1.9453125 -2 4 C-4.00338274 4.45237675 -6.00810179 4.90113635 -8.0234375 5.296875 C-11.43230571 6.50951586 -12.37495092 8.88532261 -14 12 C-11.36 12 -8.72 12 -6 12 C-6.5 13.9375 -6.5 13.9375 -8 16 C-9.25296875 15.99097656 -10.5059375 15.98195313 -11.796875 15.97265625 C-13.99574841 16.09562569 -13.99574841 16.09562569 -16 17 C-18.27831154 20.22152941 -19.45922137 23.79203292 -20.75 27.5 C-21.46038031 29.45290932 -22.18374394 31.40115958 -22.921875 33.34375 C-23.22706055 34.21193359 -23.53224609 35.08011719 -23.84667969 35.97460938 C-25 38 -25 38 -27.12988281 38.79101562 C-27.74702148 38.85998047 -28.36416016 38.92894531 -29 39 C-29 35.40161911 -28.80048384 34.0297119 -27.46875 30.890625 C-27.15292969 30.13652344 -26.83710938 29.38242188 -26.51171875 28.60546875 C-26.17785156 27.82816406 -25.84398437 27.05085938 -25.5 26.25 C-24.99919922 25.06083984 -24.99919922 25.06083984 -24.48828125 23.84765625 C-23.66518982 21.89575371 -22.83343209 19.94750968 -22 18 C-23.32 17.67 -24.64 17.34 -26 17 C-25.67 15.68 -25.34 14.36 -25 13 C-21.535 12.505 -21.535 12.505 -18 12 C-17.814375 11.13375 -17.62875 10.2675 -17.4375 9.375 C-13.97389391 1.24305526 -8.49240511 -1.03988634 0 0 Z " fill="#252725" transform="translate(175,107)"/>
<path d="M0 0 C0.66 0.66 1.32 1.32 2 2 C1.62910599 5.76649262 0.30388565 8.82464117 -1.375 12.1875 C-1.79523438 13.04730469 -2.21546875 13.90710938 -2.6484375 14.79296875 C-4 17 -4 17 -7 19 C-9.625 19.1875 -9.625 19.1875 -12 19 C-13 18 -13 18 -13.375 15.5625 C-12.83988774 10.47893351 -10.74018599 6.29167159 -8 2 C-4.77626323 -0.14915785 -3.73296326 -0.38286803 0 0 Z " fill="#F6D19B" transform="translate(134,120)"/>
</svg>
