<svg width="157" height="127" viewBox="0 0 157 127" fill="none" xmlns="http://www.w3.org/2000/svg">
<path d="M61.3525 0.00390625L61.1084 0H8.5C6.50058 0 4.58397 0.798391 3.17578 2.21777C1.76756 3.63734 0.983943 5.56105 0.999998 7.56055V122.294L9.0896 127H131.09L141 116V22.126C141 17.9839 137.642 14.626 133.5 14.626H88.7266L64.8252 0.986328C63.7638 0.380585 62.5716 0.0436819 61.3525 0.00390625Z" fill="#F7C078"/>
<rect x="5.99976" y="23" width="126" height="98" rx="5" fill="#D9D9D9"/>
<rect x="11.9998" y="30" width="126" height="91" rx="5" fill="white"/>
<path d="M96.7814 35.5L96.5367 35.5028C95.3124 35.5315 94.0756 35.7741 92.9339 36.2104L67.2261 46.0337H22.4528C18.3107 46.0337 14.5082 48.4522 13.9595 51.4353L0.999633 121.565C0.451037 124.548 3.42753 126.966 7.56967 126.966L131.67 127C135.789 127 139.577 124.574 140.155 121.608L155.888 40.9452C156.169 39.5051 155.64 38.1196 154.42 37.0973C153.2 36.075 151.389 35.5 149.39 35.5H96.7814Z" fill="#FED8A0"/>
<path d="M47.6376 70.177C49.2695 68.0602 52.1555 67.3346 54.083 68.5567L75.5016 82.1375C76.7484 82.9281 77.3375 84.3888 77.0469 85.9698C76.7561 87.5509 75.6296 89.0124 74.092 89.8029L47.6787 103.383C45.3016 104.605 42.6824 103.88 41.829 101.764C40.9756 99.6467 42.2112 96.9396 44.5883 95.7174L63.5469 85.9698L48.1732 76.223C46.2457 75.0009 46.0058 72.2938 47.6376 70.177Z" fill="#38240A"/>
<path d="M106.933 95.1997C109.419 95.1997 111.069 97.1812 110.619 99.6255C110.17 102.07 107.791 104.051 105.306 104.051H81.3896C78.9043 104.051 77.254 102.07 77.7035 99.6255C78.153 97.1812 80.5321 95.1997 83.0173 95.1997H106.933Z" fill="#38240A"/>
</svg>
